<svg width="15" height="15" viewBox="0 0 15 15" fill="none" xmlns="http://www.w3.org/2000/svg">
<g id="icon / ionicons / outline / filter-outline">
<path id="Vector (Stroke)" fill-rule="evenodd" clip-rule="evenodd" d="M0.46875 4.21875C0.46875 3.95987 0.678617 3.75 0.9375 3.75H14.0625C14.3214 3.75 14.5312 3.95987 14.5312 4.21875C14.5312 4.47763 14.3214 4.6875 14.0625 4.6875H0.9375C0.678617 4.6875 0.46875 4.47763 0.46875 4.21875Z" fill="#21272A"/>
<path id="Vector (Stroke)_2" fill-rule="evenodd" clip-rule="evenodd" d="M2.8125 7.5C2.8125 7.24112 3.02237 7.03125 3.28125 7.03125H11.7188C11.9776 7.03125 12.1875 7.24112 12.1875 7.5C12.1875 7.75888 11.9776 7.96875 11.7188 7.96875H3.28125C3.02237 7.96875 2.8125 7.75888 2.8125 7.5Z" fill="#21272A"/>
<path id="Vector (Stroke)_3" fill-rule="evenodd" clip-rule="evenodd" d="M5.625 10.7812C5.625 10.5224 5.83487 10.3125 6.09375 10.3125H8.90625C9.16513 10.3125 9.375 10.5224 9.375 10.7812C9.375 11.0401 9.16513 11.25 8.90625 11.25H6.09375C5.83487 11.25 5.625 11.0401 5.625 10.7812Z" fill="#21272A"/>
</g>
</svg>
