<svg width="27" height="27" viewBox="0 0 27 27" fill="none" xmlns="http://www.w3.org/2000/svg">
<g id="icon / ionicons / outline / folder-outline">
<path id="Vector (Stroke)" fill-rule="evenodd" clip-rule="evenodd" d="M3.79688 5.0625C3.46121 5.0625 3.13929 5.19584 2.90194 5.43319C2.66459 5.67054 2.53125 5.99246 2.53125 6.32812V20.6719C2.53125 21.0075 2.66459 21.3295 2.90194 21.5668C3.13929 21.8042 3.46121 21.9375 3.79688 21.9375H23.2031C23.5388 21.9375 23.8607 21.8042 24.0981 21.5668C24.3354 21.3295 24.4688 21.0075 24.4688 20.6719V8.01562C24.4688 7.67996 24.3354 7.35804 24.0981 7.12069C23.8607 6.88334 23.5388 6.75 23.2031 6.75H11.6074C11.0243 6.74999 10.4543 6.57737 9.96916 6.25392C9.96914 6.2539 9.96912 6.25389 9.9691 6.25388L8.50097 5.27513C8.29306 5.13649 8.04877 5.06251 7.79889 5.0625C7.79888 5.0625 7.79889 5.0625 7.79889 5.0625H3.79688ZM1.7087 4.23995C2.26252 3.68613 3.01366 3.375 3.79688 3.375H7.79889C8.38195 3.37501 8.95198 3.54763 9.43709 3.87108C9.43711 3.8711 9.43713 3.87111 9.43715 3.87113L10.9053 4.84987C11.1132 4.98851 11.3575 5.06249 11.6074 5.0625C11.6074 5.0625 11.6074 5.0625 11.6074 5.0625H23.2031C23.9863 5.0625 24.7375 5.37363 25.2913 5.92745C25.8451 6.48127 26.1562 7.23241 26.1562 8.01562V20.6719C26.1562 21.4551 25.8451 22.2062 25.2913 22.76C24.7375 23.3139 23.9863 23.625 23.2031 23.625H3.79688C3.01366 23.625 2.26252 23.3139 1.7087 22.76C1.15488 22.2062 0.84375 21.4551 0.84375 20.6719V6.32812C0.84375 5.54491 1.15488 4.79377 1.7087 4.23995Z" fill="#21272A"/>
<path id="Vector (Stroke)_2" fill-rule="evenodd" clip-rule="evenodd" d="M0.84375 10.125C0.84375 9.65901 1.22151 9.28125 1.6875 9.28125H25.3125C25.7785 9.28125 26.1562 9.65901 26.1562 10.125C26.1562 10.591 25.7785 10.9688 25.3125 10.9688H1.6875C1.22151 10.9688 0.84375 10.591 0.84375 10.125Z" fill="#21272A"/>
</g>
</svg>
