<svg width="27" height="27" viewBox="0 0 27 27" fill="none" xmlns="http://www.w3.org/2000/svg">
<g id="icon / ionicons / outline / git-pull-request-outline">
<path id="Vector (Stroke)" fill-rule="evenodd" clip-rule="evenodd" d="M6.75 20.25C5.81802 20.25 5.0625 21.0055 5.0625 21.9375C5.0625 22.8695 5.81802 23.625 6.75 23.625C7.68198 23.625 8.4375 22.8695 8.4375 21.9375C8.4375 21.0055 7.68198 20.25 6.75 20.25ZM3.375 21.9375C3.375 20.0735 4.88604 18.5625 6.75 18.5625C8.61396 18.5625 10.125 20.0735 10.125 21.9375C10.125 23.8015 8.61396 25.3125 6.75 25.3125C4.88604 25.3125 3.375 23.8015 3.375 21.9375Z" fill="#21272A"/>
<path id="Vector (Stroke)_2" fill-rule="evenodd" clip-rule="evenodd" d="M6.75 6.75C7.21599 6.75 7.59375 7.12776 7.59375 7.59375V19.4062C7.59375 19.8722 7.21599 20.25 6.75 20.25C6.28401 20.25 5.90625 19.8722 5.90625 19.4062V7.59375C5.90625 7.12776 6.28401 6.75 6.75 6.75Z" fill="#21272A"/>
<path id="Vector (Stroke)_3" fill-rule="evenodd" clip-rule="evenodd" d="M15.7841 1.09088C16.1136 1.42038 16.1136 1.95462 15.7841 2.28412L13.0057 5.0625L15.7841 7.84088C16.1136 8.17038 16.1136 8.70462 15.7841 9.03412C15.4546 9.36363 14.9204 9.36363 14.5909 9.03412L11.2159 5.65912C10.8864 5.32962 10.8864 4.79538 11.2159 4.46588L14.5909 1.09088C14.9204 0.761374 15.4546 0.761374 15.7841 1.09088Z" fill="#21272A"/>
<path id="Vector (Stroke)_4" fill-rule="evenodd" clip-rule="evenodd" d="M6.75 3.375C5.81802 3.375 5.0625 4.13052 5.0625 5.0625C5.0625 5.99448 5.81802 6.75 6.75 6.75C7.68198 6.75 8.4375 5.99448 8.4375 5.0625C8.4375 4.13052 7.68198 3.375 6.75 3.375ZM3.375 5.0625C3.375 3.19854 4.88604 1.6875 6.75 1.6875C8.61396 1.6875 10.125 3.19854 10.125 5.0625C10.125 6.92646 8.61396 8.4375 6.75 8.4375C4.88604 8.4375 3.375 6.92646 3.375 5.0625Z" fill="#21272A"/>
<path id="Vector (Stroke)_5" fill-rule="evenodd" clip-rule="evenodd" d="M20.25 20.25C19.318 20.25 18.5625 21.0055 18.5625 21.9375C18.5625 22.8695 19.318 23.625 20.25 23.625C21.182 23.625 21.9375 22.8695 21.9375 21.9375C21.9375 21.0055 21.182 20.25 20.25 20.25ZM16.875 21.9375C16.875 20.0735 18.386 18.5625 20.25 18.5625C22.114 18.5625 23.625 20.0735 23.625 21.9375C23.625 23.8015 22.114 25.3125 20.25 25.3125C18.386 25.3125 16.875 23.8015 16.875 21.9375Z" fill="#21272A"/>
<path id="Vector (Stroke)_6" fill-rule="evenodd" clip-rule="evenodd" d="M11.8125 5.0625C11.8125 4.59651 12.1903 4.21875 12.6562 4.21875H17.0859C18.1489 4.21875 19.1683 4.641 19.9199 5.39261C20.6715 6.14422 21.0938 7.16363 21.0938 8.22656V19.4062C21.0938 19.8722 20.716 20.25 20.25 20.25C19.784 20.25 19.4062 19.8722 19.4062 19.4062V8.22656C19.4062 7.61118 19.1618 7.021 18.7266 6.58585C18.2915 6.15071 17.7013 5.90625 17.0859 5.90625H12.6562C12.1903 5.90625 11.8125 5.52849 11.8125 5.0625Z" fill="#21272A"/>
</g>
</svg>
