<svg width="15" height="16" viewBox="0 0 15 16" fill="none" xmlns="http://www.w3.org/2000/svg">
<g id="icon / ionicons / outline / notifications-outline">
<path id="Vector (Stroke)" fill-rule="evenodd" clip-rule="evenodd" d="M5.76468 2.86001C5.97433 2.15589 6.58921 1.4375 7.49999 1.4375C8.41099 1.4375 9.02528 2.15592 9.23652 2.85871C9.23758 2.86002 9.23899 2.86167 9.24082 2.86358C9.24515 2.86809 9.25006 2.87225 9.25469 2.87547C9.25822 2.87792 9.26035 2.87897 9.26059 2.8791C9.79078 3.09739 10.4148 3.44607 10.9029 4.08446C11.3949 4.72799 11.7149 5.62133 11.7149 6.86768C11.7149 8.11034 11.846 8.79178 12.0391 9.25958C12.2084 9.66974 12.431 9.93936 12.7477 10.323C12.794 10.3791 12.8423 10.4375 12.8927 10.4992L12.8928 10.4994C13.4766 11.2145 12.9253 12.2188 12.0261 12.2188H2.97684C2.07924 12.2188 1.51869 11.2195 2.10731 10.4992C2.15775 10.4375 2.20606 10.379 2.25235 10.3229C2.56906 9.9393 2.79168 9.66965 2.96111 9.25945C3.15436 8.79161 3.28578 8.11017 3.28651 6.86768M5.76468 2.86001C5.76387 2.86097 5.76285 2.8621 5.76162 2.86338C5.75763 2.86752 5.75291 2.87152 5.7482 2.87476C5.74384 2.87777 5.74121 2.87894 5.74122 2.87895L5.74093 2.87906C5.21053 3.09748 4.58628 3.44551 4.09817 4.08375C3.6062 4.72703 3.28656 5.62024 3.28651 6.86741M7.49999 2.375C7.1391 2.375 6.79443 2.67595 6.66105 3.13484L6.66071 3.136C6.5747 3.42905 6.33657 3.64777 6.09791 3.74594C6.09788 3.74595 6.09784 3.74597 6.09781 3.74598C5.65002 3.93039 5.19223 4.19642 4.84285 4.65327C4.49733 5.10506 4.22401 5.78793 4.22401 6.86768V6.86795C4.22326 8.16385 4.08838 8.98601 3.82761 9.61735C3.60075 10.1666 3.28406 10.5483 2.96984 10.927C2.92418 10.982 2.87857 11.037 2.83329 11.0924L2.83327 11.0924C2.81461 11.1152 2.80939 11.134 2.80811 11.1481C2.80667 11.164 2.80967 11.1831 2.81971 11.2028C2.83713 11.2369 2.8805 11.2812 2.97684 11.2812H12.0261C12.1189 11.2812 12.1616 11.2384 12.1794 11.2033C12.1984 11.1658 12.196 11.1284 12.1667 11.0924C12.1214 11.037 12.0758 10.9821 12.0302 10.9271C11.716 10.5483 11.3992 10.1666 11.1725 9.61723C10.9119 8.98581 10.7774 8.16359 10.7774 6.86768C10.7774 5.78931 10.5039 5.10619 10.1581 4.65387C9.80841 4.19646 9.35041 3.92992 8.90357 3.74595C8.66223 3.64669 8.42663 3.42491 8.34113 3.13675L8.34078 3.13556C8.20567 2.67572 7.8609 2.375 7.49999 2.375Z" fill="#21272A"/>
<path id="Vector (Stroke)_2" fill-rule="evenodd" clip-rule="evenodd" d="M5.625 11.2812C5.88388 11.2812 6.09375 11.4911 6.09375 11.75V12.2188C6.09375 12.5917 6.24191 12.9494 6.50563 13.2131C6.76935 13.4768 7.12704 13.625 7.5 13.625C7.87296 13.625 8.23065 13.4768 8.49437 13.2131C8.75809 12.9494 8.90625 12.5917 8.90625 12.2188V11.75C8.90625 11.4911 9.11612 11.2812 9.375 11.2812C9.63388 11.2812 9.84375 11.4911 9.84375 11.75V12.2188C9.84375 12.8404 9.59682 13.4365 9.15728 13.876C8.71774 14.3156 8.1216 14.5625 7.5 14.5625C6.8784 14.5625 6.28226 14.3156 5.84272 13.876C5.40318 13.4365 5.15625 12.8404 5.15625 12.2188V11.75C5.15625 11.4911 5.36612 11.2812 5.625 11.2812Z" fill="#21272A"/>
</g>
</svg>
