<svg width="27" height="28" viewBox="0 0 27 28" fill="none" xmlns="http://www.w3.org/2000/svg">
<g id="icon / ionicons / outline / reorder-four-outline">
<path id="Vector (Stroke)" fill-rule="evenodd" clip-rule="evenodd" d="M4.21875 16.5312C4.21875 16.0653 4.59651 15.6875 5.0625 15.6875H21.9375C22.4035 15.6875 22.7812 16.0653 22.7812 16.5312C22.7812 16.9972 22.4035 17.375 21.9375 17.375H5.0625C4.59651 17.375 4.21875 16.9972 4.21875 16.5312Z" fill="#21272A"/>
<path id="Vector (Stroke)_2" fill-rule="evenodd" clip-rule="evenodd" d="M4.21875 11.4688C4.21875 11.0028 4.59651 10.625 5.0625 10.625H21.9375C22.4035 10.625 22.7812 11.0028 22.7812 11.4688C22.7812 11.9347 22.4035 12.3125 21.9375 12.3125H5.0625C4.59651 12.3125 4.21875 11.9347 4.21875 11.4688Z" fill="#21272A"/>
<path id="Vector (Stroke)_3" fill-rule="evenodd" clip-rule="evenodd" d="M4.21875 6.40625C4.21875 5.94026 4.59651 5.5625 5.0625 5.5625H21.9375C22.4035 5.5625 22.7812 5.94026 22.7812 6.40625C22.7812 6.87224 22.4035 7.25 21.9375 7.25H5.0625C4.59651 7.25 4.21875 6.87224 4.21875 6.40625Z" fill="#21272A"/>
<path id="Vector (Stroke)_4" fill-rule="evenodd" clip-rule="evenodd" d="M4.21875 21.5938C4.21875 21.1278 4.59651 20.75 5.0625 20.75H21.9375C22.4035 20.75 22.7812 21.1278 22.7812 21.5938C22.7812 22.0597 22.4035 22.4375 21.9375 22.4375H5.0625C4.59651 22.4375 4.21875 22.0597 4.21875 21.5938Z" fill="#21272A"/>
</g>
</svg>
