<svg width="15" height="16" viewBox="0 0 15 16" fill="none" xmlns="http://www.w3.org/2000/svg">
<g id="icon / ionicons / outline / shield-checkmark-outline">
<path id="Vector (Stroke)" fill-rule="evenodd" clip-rule="evenodd" d="M10.1505 5.30185C10.3463 5.47128 10.3676 5.76731 10.1982 5.96305L6.95207 9.71305C6.86742 9.81083 6.74613 9.8693 6.61691 9.87461C6.48768 9.87992 6.36201 9.83161 6.26962 9.7411L4.82821 8.32899C4.64329 8.14782 4.64024 7.85104 4.82141 7.66611C5.00258 7.48118 5.29936 7.47814 5.48429 7.65931L6.56955 8.72251L9.48934 5.34947C9.65877 5.15373 9.9548 5.13241 10.1505 5.30185Z" fill="#21272A"/>
<path id="Vector (Stroke)_2" fill-rule="evenodd" clip-rule="evenodd" d="M7.30708 1.47905C7.42974 1.42365 7.57029 1.42365 7.69295 1.47905C10.0235 2.53154 11.0696 2.86781 13.6502 3.3307C13.8626 3.36882 14.0216 3.54712 14.0352 3.76257C14.5306 11.6145 8.15848 14.3339 7.67512 14.5286C7.56277 14.5738 7.43726 14.5738 7.3249 14.5286C6.84155 14.3339 0.469402 11.6145 0.964812 3.76257C0.978406 3.54712 1.13738 3.36882 1.34987 3.3307C3.9304 2.86781 4.97657 2.53154 7.30708 1.47905ZM1.8826 4.1865C1.66158 10.5818 6.45534 13.1096 7.50001 13.5834C8.54469 13.1096 13.3384 10.5818 13.1174 4.1865C10.7854 3.75359 9.6575 3.38696 7.50001 2.42025C5.34253 3.38696 4.21458 3.75359 1.8826 4.1865Z" fill="#21272A"/>
</g>
</svg>
