<svg width="27" height="27" viewBox="0 0 27 27" fill="none" xmlns="http://www.w3.org/2000/svg">
<g id="icon / ionicons / outline / trash-outline">
<path id="Vector (Stroke)" fill-rule="evenodd" clip-rule="evenodd" d="M5.85365 5.06417C6.31873 5.0351 6.71932 5.38856 6.74839 5.85365L7.80307 22.7286C7.80327 22.7318 7.80344 22.7349 7.8036 22.738C7.83278 23.3058 8.20978 23.625 8.64847 23.625H18.3516C18.7859 23.625 19.1613 23.313 19.1969 22.7298L20.2517 5.85365C20.2807 5.38856 20.6813 5.0351 21.1464 5.06417C21.6115 5.09324 21.965 5.49383 21.9359 5.95891L20.8813 22.8328C20.8813 22.8328 20.8813 22.8328 20.8813 22.8329C20.7977 24.1998 19.7808 25.3125 18.3516 25.3125H8.64847C7.23263 25.3125 6.19189 24.2095 6.11859 22.8296L5.06417 5.95891C5.0351 5.49383 5.38856 5.09324 5.85365 5.06417Z" fill="#21272A"/>
<path id="Vector (Stroke)_2" fill-rule="evenodd" clip-rule="evenodd" d="M3.375 5.90625C3.375 5.44026 3.75276 5.0625 4.21875 5.0625H22.7812C23.2472 5.0625 23.625 5.44026 23.625 5.90625C23.625 6.37224 23.2472 6.75 22.7812 6.75H4.21875C3.75276 6.75 3.375 6.37224 3.375 5.90625Z" fill="#21272A"/>
<path id="Vector (Stroke)_3" fill-rule="evenodd" clip-rule="evenodd" d="M11.3882 3.375C11.333 3.37484 11.2784 3.38558 11.2275 3.4066C11.1765 3.42762 11.1302 3.45851 11.0912 3.49748C11.0523 3.53646 11.0214 3.58276 11.0003 3.63372C10.9793 3.68468 10.9686 3.73929 10.9688 3.79441L10.9688 3.79688V5.90626C10.9688 6.37225 10.591 6.75001 10.125 6.75001C9.65902 6.75001 9.28126 6.37225 9.28126 5.90626V3.79796C9.28063 3.52087 9.33469 3.24638 9.44036 2.99022C9.5462 2.73364 9.70173 2.50051 9.89799 2.30424C10.0943 2.10798 10.3274 1.95245 10.584 1.84661C10.8401 1.74094 11.1146 1.68688 11.3917 1.68751H15.6083C15.8854 1.68688 16.1599 1.74094 16.416 1.84661C16.6726 1.95245 16.9058 2.10797 17.102 2.30424C17.2983 2.50051 17.4538 2.73364 17.5597 2.99022C17.6653 3.24643 17.7194 3.52098 17.7188 3.79813V5.90626C17.7188 6.37225 17.341 6.75001 16.875 6.75001C16.409 6.75001 16.0313 6.37225 16.0313 5.90626V3.79688L16.0313 3.79441C16.0314 3.73929 16.0207 3.68468 15.9997 3.63372C15.9786 3.58276 15.9478 3.53646 15.9088 3.49748C15.8698 3.45851 15.8235 3.42762 15.7725 3.4066C15.7216 3.38558 15.667 3.37484 15.6119 3.375L15.6094 3.37501H11.3906L11.3882 3.375Z" fill="#21272A"/>
<path id="Vector (Stroke)_4" fill-rule="evenodd" clip-rule="evenodd" d="M13.5 8.4375C13.966 8.4375 14.3438 8.81526 14.3438 9.28125V21.0938C14.3438 21.5597 13.966 21.9375 13.5 21.9375C13.034 21.9375 12.6562 21.5597 12.6562 21.0938V9.28125C12.6562 8.81526 13.034 8.4375 13.5 8.4375Z" fill="#21272A"/>
<path id="Vector (Stroke)_5" fill-rule="evenodd" clip-rule="evenodd" d="M9.67302 8.43805C10.1387 8.42142 10.5297 8.78545 10.5463 9.25115L10.9682 21.0636C10.9849 21.5293 10.6208 21.9203 10.1551 21.937C9.68943 21.9536 9.29843 21.5896 9.2818 21.1239L8.85992 9.31138C8.84329 8.84568 9.20733 8.45468 9.67302 8.43805Z" fill="#21272A"/>
<path id="Vector (Stroke)_6" fill-rule="evenodd" clip-rule="evenodd" d="M17.327 8.43805C17.7927 8.45468 18.1567 8.84568 18.1401 9.31138L17.7182 21.1239C17.7016 21.5896 17.3106 21.9536 16.8449 21.937C16.3792 21.9203 16.0152 21.5293 16.0318 21.0636L16.4537 9.25115C16.4703 8.78545 16.8613 8.42142 17.327 8.43805Z" fill="#21272A"/>
</g>
</svg>
