<svg width="15" height="15" viewBox="0 0 15 15" fill="none" xmlns="http://www.w3.org/2000/svg">
<g id="icon / ionicons / sharp / ellipsis-horizontal-sharp">
<path id="Vector" d="M7.5 8.90625C8.27665 8.90625 8.90625 8.27665 8.90625 7.5C8.90625 6.72335 8.27665 6.09375 7.5 6.09375C6.72335 6.09375 6.09375 6.72335 6.09375 7.5C6.09375 8.27665 6.72335 8.90625 7.5 8.90625Z" fill="#21272A"/>
<path id="Vector_2" d="M12.1875 8.90625C12.9642 8.90625 13.5938 8.27665 13.5938 7.5C13.5938 6.72335 12.9642 6.09375 12.1875 6.09375C11.4108 6.09375 10.7812 6.72335 10.7812 7.5C10.7812 8.27665 11.4108 8.90625 12.1875 8.90625Z" fill="#21272A"/>
<path id="Vector_3" d="M2.8125 8.90625C3.58915 8.90625 4.21875 8.27665 4.21875 7.5C4.21875 6.72335 3.58915 6.09375 2.8125 6.09375C2.03585 6.09375 1.40625 6.72335 1.40625 7.5C1.40625 8.27665 2.03585 8.90625 2.8125 8.90625Z" fill="#21272A"/>
</g>
</svg>
