<svg id="Layer_1" enable-background="new 0 0 131 131" height="512" viewBox="0 0 131 131" width="512" xmlns="http://www.w3.org/2000/svg"><g><g><path d="m101.0835 88.3959.08-28.46-1.75-1.01-40.0499 23.27-.09 30.48 13.74 7.9-4.9 2.98c-1.2999-.28-2.7899-.15-3.9.39l-55-31.75c1.4301-.89 1.4-2.29-.1-3.15-.14-.08-.2899-.15-.4401-.2101l21.83-12.3298 15.55 8.98c.1099.0599.22.09.33.09.12 0 .23-.03.33-.09l36.02-20.9301c.21-.12.3301-.34.3301-.5699 0-.24-.1301-.4501-.3301-.5701l-7.1899-4.15.03-8.8099 18.4199-10.6201 18.1799 10.5901c1.99 1.1599 3.78 1.2 5.03.3301-.08.0499-.1499.1099-.23.1599l6.5601-3.8101c1.22-.7 1.98-2.2 1.99-4.33.03-3.12-1.5601-6.7699-3.8701-9.35.1001-.5901.1702-1.21.1801-1.91.04-5.46-3.7999-12.15-8.5399-14.9-1.1801-.6899-2.3201-1.08-3.3401-1.1599l.01-.01c-1.3899-5.0701-4.9399-10.16-9.08-12.5801-2.74-1.58-5.2101-1.74-7-.72l-6.53 3.79-.0399.02h.0199c-1.59.8999-2.63 2.75-2.85 5.35l-5.12 2.9501c.0499-.03.1-.05.15-.0701-1.65.86-2.6899 2.8101-2.71 5.63-.04 5.51 3.8199 12.24 8.59 15.0199l7.2599 4.2301-17.0798 9.84.0399-13.63-13.5499-7.8199-1.6901.98v-2l-13.54-7.8301-13.46 7.8301h-.01l-.01 3.25-2.91-1.6799-13.45 7.8298h-.01l-.0701 23.4201-7.1399 4.1499c-.2.11-.3301.3301-.3301.5601 0 .24.1301.45.3301.5699l19.4099 11.2101-22.53 12.6499c-1.1099-.05-2.25.16-3.0898.65-1.52.88-1.52 2.3199.0299 3.2101 1.08.6299 2.65.7999 4.02.5399l55.48 32.03c-.5699.8199-.2699 1.7899.88 2.46 1.53.88 4.02.89 5.54 0 1.48-.86 1.5-2.23.13-3.12l4.67-2.84 14.2 8.1701 40.05-23.27.01-2.02zm-38.94-45.3001h.0099l-.0199 8.42h-.01zm-15.2301-8.8398h.01l-.01 3.3099-.01-.01zm-35.5 29.71 5.49-3.1901-.0099 3.7001 13.5499 7.8199.0601-19.42.01-.01-.0601 19.4301 1.6801-.98v2l13.5399 7.8199.0601-18.87h.01l-.0601 18.87 13.4601-7.8199.0099-3.25 2.9102 1.67.0499-18.7101.01.01-.0499 18.7001 13.46-7.8201.01-3.14 5.5499 3.2101-34.71 20.1699z" fill="#cad0dd"/><g><g><path d="m90.948 15.408h1.339v50.053h-1.339z" fill="#4c7891" transform="matrix(.5 .866 -.866 .5 80.884 -59.132)"/></g><g><g><g><path d="m46.3869 85.573c-.1129 0-.2271-.0282-.3285-.0873l-36.2844-20.9473c-.2027-.1181-.3285-.3336-.3285-.5698 0-.2335.1245-.4491.3272-.5672l36.0201-20.9319c.2015-.1155.4543-.1232.6583-.0026l36.2844 20.9473c.2027.1181.3285.3336.3285.5698 0 .2335-.1245.4491-.3272.5672l-36.0201 20.932c-.1014.059-.2156.0898-.3298.0898zm-34.973-21.6069 34.9717 20.1902 34.7099-20.1697-34.9717-20.1902z" fill="#4c7891"/></g></g></g><g><g><g><g><path d="m60.3774 26.4317-.0829 28.6437-13.4582 7.821.083-28.6437z" fill="#6eba6e"/></g></g><g><g><path d="m59.5065 27.9409-.2986.1735-.0758 26.2818.2977.1805z" fill="#6eba6e"/></g></g><g><g><path d="m59.1321 54.3962v.0002l-11.4236 6.6372-.001.3537 11.7223-6.8106z" fill="#4c7891"/></g></g><g><g><path d="m59.1838 28.0902-11.4236 6.6372-.0758 26.282 11.4236-6.6371z" fill="#60a860"/></g></g><g><g><path d="m46.9097 34.2527-.0829 28.6437-13.5463-7.8209.0829-28.6438z" fill="#75ca75"/></g></g><g><g><path d="m60.3774 26.4317-13.4581 7.821-13.5463-7.821 13.4581-7.821z" fill="#9ad898"/></g></g><g><g enable-background="new"><g><g><g><path d="m55.7037 25.1558v1.1229l-8.8428 5.1537.0288-1.1545z" fill="#d4dae8"/></g></g></g><g><g><g><path d="m46.8897 30.2779-.0288 1.1545-8.8972-5.122.0544-1.1545z" fill="#e4e8f4"/></g></g></g><g><g><g><path d="m55.7037 25.1558-8.814 5.1221-8.8716-5.122 8.8139-5.1221z" fill="#fff"/></g></g></g></g></g><g><g><g><g><path d="m48.9767 35.3965.0018.6427-.5593.323-.0019-.6428z" fill="#f9bb4a"/></g></g></g><g><g><g><path d="m49.5378 35.7163.0019.6427-.5594.323-.0018-.6428z" fill="#f9bb4a"/></g></g></g><g><g><g><path d="m50.0954 34.7506.0018.6428-.5594.3229-.0018-.6427z" fill="#f9bb4a"/></g></g></g><g><g><g><path d="m50.6565 35.0704.0018.6428-.5593.3229-.0018-.6427z" fill="#f9bb4a"/></g></g></g><g><g><g><path d="m51.214 34.1048.0019.6427-.5594.3229-.0018-.6427z" fill="#f9bb4a"/></g></g></g><g><g><g><path d="m51.7802 34.4216.0018.6428-.5643.3258-.0018-.6427z" fill="#f9bb4a"/></g></g></g><g><g><g><path d="m52.3377 33.456.0019.6427-.5594.3229-.0018-.6427z" fill="#f9bb4a"/></g></g></g><g><g><g><path d="m52.8989 33.7758.0018.6427-.5593.323-.0018-.6428z" fill="#f9bb4a"/></g></g></g><g><g><g><path d="m53.4564 32.8101.0018.6428-.5593.3229-.0018-.6428z" fill="#f9bb4a"/></g></g></g><g><g><g><path d="m54.0176 33.1299.0018.6428-.5594.3229-.0018-.6427z" fill="#f9bb4a"/></g></g></g><g><g><g><path d="m54.5751 32.1643.0018.6427-.5593.3229-.0019-.6427z" fill="#f9bb4a"/></g></g></g><g><g><g><path d="m55.1362 32.4841.0019.6427-.5594.3229-.0018-.6427z" fill="#f9bb4a"/></g></g></g><g><g><g><path d="m55.6937 31.5184.0019.6427-.5594.323-.0018-.6428z" fill="#f9bb4a"/></g></g></g><g><g><g><path d="m56.2549 31.8382.0018.6427-.5593.323-.0018-.6428z" fill="#f9bb4a"/></g></g></g><g><g><g><path d="m56.8175 30.8696.0018.6427-.5644.3259-.0018-.6427z" fill="#f9bb4a"/></g></g></g><g><g><g><path d="m57.3786 31.1894.0018.6427-.5593.323-.0018-.6428z" fill="#f9bb4a"/></g></g></g><g><g><g><path d="m57.9361 30.2237.0019.6428-.5594.3229-.0018-.6427z" fill="#f9bb4a"/></g></g></g><g><g><g><path d="m58.4973 30.5436.0018.6427-.5593.3229-.0018-.6427z" fill="#f9bb4a"/></g></g></g></g><g><g><g><path d="m58.7487 31.8382.0008.4324-10.63 6.1372-.0008-.4324z" fill="#bac1ce"/></g></g></g><g><g><g><g><path d="m48.9767 40.5135.0018.6427-.5593.323-.0019-.6428z" fill="#75ca75"/></g></g></g><g><g><g><path d="m49.5378 40.8333.0019.6427-.5594.323-.0018-.6428z" fill="#75ca75"/></g></g></g><g><g><g><path d="m50.0954 39.8676.0018.6428-.5594.3229-.0018-.6427z" fill="#75ca75"/></g></g></g><g><g><g><path d="m50.6565 40.1874.0018.6428-.5593.3229-.0018-.6427z" fill="#75ca75"/></g></g></g><g><g><g><path d="m51.214 39.2218.0019.6427-.5594.3229-.0018-.6427z" fill="#75ca75"/></g></g></g><g><g><g><path d="m51.7802 39.5387.0018.6427-.5643.3258-.0018-.6427z" fill="#75ca75"/></g></g></g><g><g><g><path d="m52.3377 38.573.0019.6427-.5594.323-.0018-.6428z" fill="#75ca75"/></g></g></g><g><g><g><path d="m52.8989 38.8928.0018.6427-.5593.323-.0018-.6428z" fill="#75ca75"/></g></g></g><g><g><g><path d="m53.4564 37.9271.0018.6428-.5593.3229-.0018-.6427z" fill="#75ca75"/></g></g></g><g><g><g><path d="m54.0176 38.2469.0018.6428-.5594.3229-.0018-.6427z" fill="#75ca75"/></g></g></g><g><g><g><path d="m54.5751 37.2813.0018.6427-.5593.3229-.0019-.6427z" fill="#75ca75"/></g></g></g><g><g><g><path d="m55.1362 37.6011.0019.6427-.5594.3229-.0018-.6427z" fill="#75ca75"/></g></g></g><g><g><g><path d="m55.6937 36.6354.0019.6427-.5594.323-.0018-.6428z" fill="#75ca75"/></g></g></g><g><g><g><path d="m56.2549 36.9552.0018.6427-.5593.323-.0018-.6428z" fill="#75ca75"/></g></g></g><g><g><g><path d="m56.8175 35.9866.0018.6428-.5644.3258-.0018-.6427z" fill="#75ca75"/></g></g></g><g><g><g><path d="m57.3786 36.3064.0018.6428-.5593.3229-.0018-.6427z" fill="#75ca75"/></g></g></g><g><g><g><path d="m57.9361 35.3408.0019.6427-.5594.3229-.0018-.6427z" fill="#75ca75"/></g></g></g><g><g><g><path d="m58.4973 35.6606.0018.6427-.5593.3229-.0018-.6427z" fill="#75ca75"/></g></g></g></g><g><g><g><path d="m58.7487 36.9552.0008.4324-10.63 6.1372-.0008-.4324z" fill="#bac1ce"/></g></g></g><g><g><g><g><path d="m48.9767 45.6305.0018.6428-.5593.3229-.0019-.6427z" fill="#748bfd"/></g></g></g><g><g><g><path d="m49.5378 45.9503.0019.6428-.5594.3229-.0018-.6427z" fill="#748bfd"/></g></g></g><g><g><g><path d="m50.0954 44.9847.0018.6427-.5594.3229-.0018-.6427z" fill="#748bfd"/></g></g></g><g><g><g><path d="m50.6565 45.3045.0018.6427-.5593.3229-.0018-.6427z" fill="#748bfd"/></g></g></g><g><g><g><path d="m51.214 44.3388.0019.6427-.5594.323-.0018-.6428z" fill="#748bfd"/></g></g></g><g><g><g><path d="m51.7802 44.6557.0018.6427-.5643.3259-.0018-.6428z" fill="#748bfd"/></g></g></g><g><g><g><path d="m52.3377 43.69.0019.6428-.5594.3229-.0018-.6427z" fill="#748bfd"/></g></g></g><g><g><g><path d="m52.8989 44.0098.0018.6428-.5593.3229-.0018-.6427z" fill="#748bfd"/></g></g></g><g><g><g><path d="m53.4564 43.0442.0018.6427-.5593.3229-.0018-.6427z" fill="#748bfd"/></g></g></g><g><g><g><path d="m54.0176 43.364.0018.6427-.5594.3229-.0018-.6427z" fill="#748bfd"/></g></g></g><g><g><g><path d="m54.5751 42.3983.0018.6427-.5593.323-.0019-.6428z" fill="#748bfd"/></g></g></g><g><g><g><path d="m55.1362 42.7181.0019.6427-.5594.323-.0018-.6428z" fill="#748bfd"/></g></g></g><g><g><g><path d="m55.6937 41.7524.0019.6428-.5594.3229-.0018-.6427z" fill="#748bfd"/></g></g></g><g><g><g><path d="m56.2549 42.0722.0018.6428-.5593.3229-.0018-.6427z" fill="#748bfd"/></g></g></g><g><g><g><path d="m56.8175 41.1037.0018.6427-.5644.3258-.0018-.6427z" fill="#748bfd"/></g></g></g><g><g><g><path d="m57.3786 41.4235.0018.6427-.5593.3229-.0018-.6427z" fill="#748bfd"/></g></g></g><g><g><g><path d="m57.9361 40.4578.0019.6427-.5594.323-.0018-.6428z" fill="#748bfd"/></g></g></g><g><g><g><path d="m58.4973 40.7776.0018.6427-.5593.323-.0018-.6428z" fill="#748bfd"/></g></g></g></g><g><g><g><path d="m58.7487 42.0722.0008.4325-10.63 6.1372-.0008-.4325z" fill="#bac1ce"/></g></g></g><g><g><g><g><path d="m48.9767 50.7476.0018.6427-.5593.3229-.0019-.6427z" fill="#f9607f"/></g></g></g><g><g><g><path d="m49.5378 51.0674.0019.6427-.5594.3229-.0018-.6427z" fill="#f9607f"/></g></g></g><g><g><g><path d="m50.0954 50.1017.0018.6427-.5594.323-.0018-.6428z" fill="#f9607f"/></g></g></g><g><g><g><path d="m50.6565 50.4215.0018.6427-.5593.323-.0018-.6428z" fill="#f9607f"/></g></g></g><g><g><g><path d="m51.214 49.4558.0019.6428-.5594.3229-.0018-.6427z" fill="#f9607f"/></g></g></g><g><g><g><path d="m51.7802 49.7727.0018.6428-.5643.3258-.0018-.6427z" fill="#f9607f"/></g></g></g><g><g><g><path d="m52.3377 48.8071.0019.6427-.5594.3229-.0018-.6427z" fill="#f9607f"/></g></g></g><g><g><g><path d="m52.8989 49.1269.0018.6427-.5593.3229-.0018-.6427z" fill="#f9607f"/></g></g></g><g><g><g><path d="m53.4564 48.1612.0018.6427-.5593.323-.0018-.6428z" fill="#f9607f"/></g></g></g><g><g><g><path d="m54.0176 48.481.0018.6427-.5594.323-.0018-.6428z" fill="#f9607f"/></g></g></g><g><g><g><path d="m54.5751 47.5153.0018.6428-.5593.3229-.0019-.6428z" fill="#f9607f"/></g></g></g><g><g><g><path d="m55.1362 47.8351.0019.6428-.5594.3229-.0018-.6427z" fill="#f9607f"/></g></g></g><g><g><g><path d="m55.6937 46.8695.0019.6427-.5594.3229-.0018-.6427z" fill="#f9607f"/></g></g></g><g><g><g><path d="m56.2549 47.1893.0018.6427-.5593.3229-.0018-.6427z" fill="#f9607f"/></g></g></g><g><g><g><path d="m56.8175 46.2207.0018.6427-.5644.3259-.0018-.6428z" fill="#f9607f"/></g></g></g><g><g><g><path d="m57.3786 46.5405.0018.6427-.5593.3229-.0018-.6427z" fill="#f9607f"/></g></g></g><g><g><g><path d="m57.9361 45.5748.0019.6427-.5594.323-.0018-.6427z" fill="#f9607f"/></g></g></g><g><g><g><path d="m58.4973 45.8946.0018.6428-.5593.3229-.0018-.6428z" fill="#f9607f"/></g></g></g></g><g><g><g><path d="m58.7487 47.1893.0008.4324-10.63 6.1372-.0008-.4324z" fill="#bac1ce"/></g></g></g><g><g><g><g><path d="m48.9767 55.8646.0018.6427-.5593.3229-.0019-.6427z" fill="#9ad898"/></g></g></g><g><g><g><path d="m49.5378 56.1844.0019.6427-.5594.3229-.0018-.6427z" fill="#9ad898"/></g></g></g><g><g><g><path d="m50.0954 55.2187.0018.6427-.5594.323-.0018-.6428z" fill="#9ad898"/></g></g></g><g><g><g><path d="m50.6565 55.5385.0018.6427-.5593.323-.0018-.6428z" fill="#9ad898"/></g></g></g><g><g><g><path d="m51.214 54.5728.0019.6428-.5594.3229-.0018-.6427z" fill="#9ad898"/></g></g></g><g><g><g><path d="m51.7802 54.8897.0018.6428-.5643.3258-.0018-.6427z" fill="#9ad898"/></g></g></g><g><g><g><path d="m52.3377 53.9241.0019.6427-.5594.3229-.0018-.6427z" fill="#9ad898"/></g></g></g><g><g><g><path d="m52.8989 54.2439.0018.6427-.5593.3229-.0018-.6427z" fill="#9ad898"/></g></g></g><g><g><g><path d="m53.4564 53.2782.0018.6427-.5593.323-.0018-.6428z" fill="#9ad898"/></g></g></g><g><g><g><path d="m54.0176 53.598.0018.6427-.5594.323-.0018-.6428z" fill="#9ad898"/></g></g></g><g><g><g><path d="m54.5751 52.6323.0018.6428-.5593.3229-.0019-.6427z" fill="#9ad898"/></g></g></g><g><g><g><path d="m55.1362 52.9521.0019.6428-.5594.3229-.0018-.6427z" fill="#9ad898"/></g></g></g><g><g><g><path d="m55.6937 51.9865.0019.6427-.5594.3229-.0018-.6427z" fill="#9ad898"/></g></g></g><g><g><g><path d="m56.2549 52.3063.0018.6427-.5593.3229-.0018-.6427z" fill="#9ad898"/></g></g></g><g><g><g><path d="m56.8175 51.3377.0018.6427-.5644.3259-.0018-.6428z" fill="#9ad898"/></g></g></g><g><g><g><path d="m57.3786 51.6575.0018.6427-.5593.323-.0018-.6428z" fill="#9ad898"/></g></g></g><g><g><g><path d="m57.9361 50.6918.0019.6428-.5594.3229-.0018-.6427z" fill="#9ad898"/></g></g></g><g><g><g><path d="m58.4973 51.0116.0018.6428-.5593.3229-.0018-.6427z" fill="#9ad898"/></g></g></g></g><g><g><g><path d="m58.7487 52.3063.0008.4324-10.63 6.1372-.0008-.4324z" fill="#bac1ce"/></g></g></g><g><g><g><g><g><path d="m34.2589 29.1916-.0011.3851 11.6926 6.7507.001-.3851z" fill="#6eba6e"/></g></g></g><g><g><g><path d="m34.2535 31.1171-.0011.3852 11.6925 6.7507.0011-.3852z" fill="#6eba6e"/></g></g></g><g><g><g><path d="m34.2507 32.0799-.0011.3851 11.6926 6.7507.0011-.3851z" fill="#6eba6e"/></g></g></g><g><g><g><path d="m34.2562 30.1544-.0011.3851 11.6925 6.7507.0011-.3851z" fill="#6eba6e"/></g></g></g><g><g><g><path d="m34.2398 35.9309-.0011.385 11.6925 6.7507.0011-.3851z" fill="#6eba6e"/></g></g></g><g><g><g><path d="m34.2426 34.9681-.0011.3852 11.6925 6.7506.0011-.3852z" fill="#6eba6e"/></g></g></g><g enable-background="new"><g><g><g><path d="m34.2453 34.0054-.0011.3851 11.6925 6.7506.0011-.385z" fill="#6eba6e"/></g></g></g><g><g><g><path d="m34.248 33.0426-.0011.3852 11.6925 6.7507.0011-.3852z" fill="#6eba6e"/></g></g></g></g></g><g><g><g><g><path d="m34.2589 46.2615-.0011.3851 11.6926 6.7507.001-.3851z" fill="#6eba6e"/></g></g></g><g><g><g><path d="m34.2535 48.187-.0011.3852 11.6925 6.7507.0011-.3852z" fill="#6eba6e"/></g></g></g><g><g><g><path d="m34.2507 49.1498-.0011.3851 11.6926 6.7507.0011-.3851z" fill="#6eba6e"/></g></g></g><g><g><g><path d="m34.2562 47.2244-.0011.385 11.6925 6.7507.0011-.3851z" fill="#6eba6e"/></g></g></g><g><g><g><path d="m34.2398 53.0008-.0011.3851 11.6925 6.7506.0011-.385z" fill="#6eba6e"/></g></g></g><g><g><g><path d="m34.2426 52.038-.0011.3852 11.6925 6.7507.0011-.3852z" fill="#6eba6e"/></g></g></g><g enable-background="new"><g><g><g><path d="m34.2453 51.0753-.0011.3851 11.6925 6.7507.0011-.3851z" fill="#6eba6e"/></g></g></g><g><g><g><path d="m34.248 50.1125-.0011.3852 11.6925 6.7507.0011-.3852z" fill="#6eba6e"/></g></g></g></g></g></g></g><g><g><g><path d="m43.9936 35.8313-.0829 28.6438-13.4582 7.821.083-28.6438z" fill="#f34858"/></g></g><g><g><path d="m43.1227 37.3405-.2986.1735-.0758 26.2819.2977.1804z" fill="#fa5168"/></g></g><g><g><path d="m42.7483 63.7959v.0002l-11.4236 6.6371-.001.3538 11.7223-6.8107z" fill="#4c7891"/></g></g><g><g><path d="m42.8 37.4899-11.4236 6.6372-.0758 26.282 11.4236-6.6372z" fill="#e63044"/></g></g><g><g><path d="m30.5259 43.6523-.0829 28.6438-13.5463-7.821.0829-28.6437z" fill="#fa5168"/></g></g><g><g><path d="m43.9936 35.8313-13.4581 7.821-13.5463-7.8209 13.4581-7.821z" fill="#f9607f"/></g></g><g><g enable-background="new"><g><g><g><path d="m39.3199 34.5555v1.1228l-8.8428 5.1538.0288-1.1545z" fill="#d4dae8"/></g></g></g><g><g><g><path d="m30.5059 39.6776-.0288 1.1545-8.8972-5.1221.0544-1.1545z" fill="#e4e8f4"/></g></g></g><g><g><g><path d="m39.3199 34.5555-8.814 5.1221-8.8716-5.1221 8.8139-5.1221z" fill="#fff"/></g></g></g></g></g><g><g><g><g><path d="m32.5929 44.7961.0018.6428-.5593.3229-.0018-.6427z" fill="#f9bb4a"/></g></g></g><g><g><g><path d="m33.154 45.116.0019.6427-.5594.3229-.0018-.6427z" fill="#f9bb4a"/></g></g></g><g><g><g><path d="m33.7116 44.1503.0018.6427-.5594.323-.0018-.6428z" fill="#f9bb4a"/></g></g></g><g><g><g><path d="m34.2727 44.4701.0018.6427-.5593.3229-.0018-.6427z" fill="#f9bb4a"/></g></g></g><g><g><g><path d="m34.8302 43.5044.0019.6428-.5594.3229-.0018-.6427z" fill="#f9bb4a"/></g></g></g><g><g><g><path d="m35.3964 43.8213.0018.6427-.5643.3259-.0018-.6427z" fill="#f9bb4a"/></g></g></g><g><g><g><path d="m35.9539 42.8556.0019.6428-.5594.3229-.0018-.6427z" fill="#f9bb4a"/></g></g></g><g><g><g><path d="m36.5151 43.1754.0018.6428-.5593.3229-.0018-.6427z" fill="#f9bb4a"/></g></g></g><g><g><g><path d="m37.0726 42.2098.0018.6427-.5593.3229-.0018-.6427z" fill="#f9bb4a"/></g></g></g><g><g><g><path d="m37.6338 42.5296.0018.6427-.5594.323-.0018-.6428z" fill="#f9bb4a"/></g></g></g><g><g><g><path d="m38.1913 41.5639.0018.6427-.5593.323-.0019-.6428z" fill="#f9bb4a"/></g></g></g><g><g><g><path d="m38.7524 41.8837.0019.6428-.5594.3229-.0018-.6428z" fill="#f9bb4a"/></g></g></g><g><g><g><path d="m39.3099 40.9181.0019.6427-.5594.3229-.0018-.6427z" fill="#f9bb4a"/></g></g></g><g><g><g><path d="m39.8711 41.2379.0018.6427-.5593.3229-.0018-.6427z" fill="#f9bb4a"/></g></g></g><g><g><g><path d="m40.4337 40.2693.0018.6427-.5644.3259-.0018-.6428z" fill="#f9bb4a"/></g></g></g><g><g><g><path d="m40.9948 40.5891.0018.6427-.5593.3229-.0018-.6427z" fill="#f9bb4a"/></g></g></g><g><g><g><path d="m41.5523 39.6234.0019.6427-.5594.323-.0018-.6428z" fill="#f9bb4a"/></g></g></g><g><g><g><path d="m42.1135 39.9432.0018.6427-.5593.323-.0018-.6428z" fill="#f9bb4a"/></g></g></g></g><g><g><g><path d="m42.3649 41.2379.0008.4324-10.63 6.1372-.0008-.4324z" fill="#bac1ce"/></g></g></g><g><g><g><g><path d="m32.5929 49.9132.0018.6427-.5593.3229-.0018-.6427z" fill="#75ca75"/></g></g></g><g><g><g><path d="m33.154 50.233.0019.6427-.5594.3229-.0018-.6427z" fill="#75ca75"/></g></g></g><g><g><g><path d="m33.7116 49.2673.0018.6427-.5594.323-.0018-.6428z" fill="#75ca75"/></g></g></g><g><g><g><path d="m34.2727 49.5871.0018.6427-.5593.323-.0018-.6428z" fill="#75ca75"/></g></g></g><g><g><g><path d="m34.8302 48.6214.0019.6428-.5594.3229-.0018-.6427z" fill="#75ca75"/></g></g></g><g><g><g><path d="m35.3964 48.9383.0018.6428-.5643.3258-.0018-.6427z" fill="#75ca75"/></g></g></g><g><g><g><path d="m35.9539 47.9727.0019.6427-.5594.3229-.0018-.6427z" fill="#75ca75"/></g></g></g><g><g><g><path d="m36.5151 48.2925.0018.6427-.5593.3229-.0018-.6427z" fill="#75ca75"/></g></g></g><g><g><g><path d="m37.0726 47.3268.0018.6427-.5593.323-.0018-.6428z" fill="#75ca75"/></g></g></g><g><g><g><path d="m37.6338 47.6466.0018.6427-.5594.323-.0018-.6428z" fill="#75ca75"/></g></g></g><g><g><g><path d="m38.1913 46.6809.0018.6428-.5593.3229-.0019-.6427z" fill="#75ca75"/></g></g></g><g><g><g><path d="m38.7524 47.0007.0019.6428-.5594.3229-.0018-.6427z" fill="#75ca75"/></g></g></g><g><g><g><path d="m39.3099 46.0351.0019.6427-.5594.3229-.0018-.6427z" fill="#75ca75"/></g></g></g><g><g><g><path d="m39.8711 46.3549.0018.6427-.5593.3229-.0018-.6427z" fill="#75ca75"/></g></g></g><g><g><g><path d="m40.4337 45.3863.0018.6427-.5644.3259-.0018-.6428z" fill="#75ca75"/></g></g></g><g><g><g><path d="m40.9948 45.7061.0018.6427-.5593.323-.0018-.6428z" fill="#75ca75"/></g></g></g><g><g><g><path d="m41.5523 44.7404.0019.6428-.5594.3229-.0018-.6427z" fill="#75ca75"/></g></g></g><g><g><g><path d="m42.1135 45.0602.0018.6428-.5593.3229-.0018-.6427z" fill="#75ca75"/></g></g></g></g><g><g><g><path d="m42.3649 46.3549.0008.4324-10.63 6.1372-.0008-.4324z" fill="#bac1ce"/></g></g></g><g><g><g><g><path d="m32.5929 55.0302.0018.6427-.5593.323-.0018-.6428z" fill="#748bfd"/></g></g></g><g><g><g><path d="m33.154 55.35.0019.6427-.5594.323-.0018-.6428z" fill="#748bfd"/></g></g></g><g><g><g><path d="m33.7116 54.3843.0018.6428-.5594.3229-.0018-.6427z" fill="#748bfd"/></g></g></g><g><g><g><path d="m34.2727 54.7041.0018.6428-.5593.3229-.0018-.6427z" fill="#748bfd"/></g></g></g><g><g><g><path d="m34.8302 53.7385.0019.6427-.5594.3229-.0018-.6427z" fill="#748bfd"/></g></g></g><g><g><g><path d="m35.3964 54.0554.0018.6427-.5643.3258-.0018-.6427z" fill="#748bfd"/></g></g></g><g><g><g><path d="m35.9539 53.0897.0019.6427-.5594.323-.0018-.6428z" fill="#748bfd"/></g></g></g><g><g><g><path d="m36.5151 53.4095.0018.6427-.5593.323-.0018-.6428z" fill="#748bfd"/></g></g></g><g><g><g><path d="m37.0726 52.4438.0018.6428-.5593.3229-.0018-.6427z" fill="#748bfd"/></g></g></g><g><g><g><path d="m37.6338 52.7636.0018.6428-.5594.3229-.0018-.6427z" fill="#748bfd"/></g></g></g><g><g><g><path d="m38.1913 51.798.0018.6427-.5593.3229-.0019-.6427z" fill="#748bfd"/></g></g></g><g><g><g><path d="m38.7524 52.1178.0019.6427-.5594.3229-.0018-.6427z" fill="#748bfd"/></g></g></g><g><g><g><path d="m39.3099 51.1521.0019.6427-.5594.323-.0018-.6428z" fill="#748bfd"/></g></g></g><g><g><g><path d="m39.8711 51.4719.0018.6427-.5593.323-.0018-.6428z" fill="#748bfd"/></g></g></g><g><g><g><path d="m40.4337 50.5033.0018.6428-.5644.3258-.0018-.6427z" fill="#748bfd"/></g></g></g><g><g><g><path d="m40.9948 50.8231.0018.6428-.5593.3229-.0018-.6427z" fill="#748bfd"/></g></g></g><g><g><g><path d="m41.5523 49.8575.0019.6427-.5594.3229-.0018-.6427z" fill="#748bfd"/></g></g></g><g><g><g><path d="m42.1135 50.1773.0018.6427-.5593.3229-.0018-.6427z" fill="#748bfd"/></g></g></g></g><g><g><g><path d="m42.3649 51.4719.0008.4324-10.63 6.1372-.0008-.4324z" fill="#bac1ce"/></g></g></g><g><g><g><g><path d="m32.5929 60.1472.0018.6427-.5593.323-.0018-.6428z" fill="#f9607f"/></g></g></g><g><g><g><path d="m33.154 60.467.0019.6428-.5594.3229-.0018-.6428z" fill="#f9607f"/></g></g></g><g><g><g><path d="m33.7116 59.5014.0018.6427-.5594.3229-.0018-.6427z" fill="#f9607f"/></g></g></g><g><g><g><path d="m34.2727 59.8212.0018.6427-.5593.3229-.0018-.6427z" fill="#f9607f"/></g></g></g><g><g><g><path d="m34.8302 58.8555.0019.6427-.5594.323-.0018-.6428z" fill="#f9607f"/></g></g></g><g><g><g><path d="m35.3964 59.1724.0018.6427-.5643.3259-.0018-.6428z" fill="#f9607f"/></g></g></g><g><g><g><path d="m35.9539 58.2067.0019.6427-.5594.323-.0018-.6428z" fill="#f9607f"/></g></g></g><g><g><g><path d="m36.5151 58.5265.0018.6427-.5593.323-.0018-.6428z" fill="#f9607f"/></g></g></g><g><g><g><path d="m37.0726 57.5608.0018.6428-.5593.3229-.0018-.6427z" fill="#f9607f"/></g></g></g><g><g><g><path d="m37.6338 57.8806.0018.6428-.5594.3229-.0018-.6427z" fill="#f9607f"/></g></g></g><g><g><g><path d="m38.1913 56.915.0018.6427-.5593.3229-.0019-.6427z" fill="#f9607f"/></g></g></g><g><g><g><path d="m38.7524 57.2348.0019.6427-.5594.323-.0018-.6428z" fill="#f9607f"/></g></g></g><g><g><g><path d="m39.3099 56.2691.0019.6428-.5594.3229-.0018-.6428z" fill="#f9607f"/></g></g></g><g><g><g><path d="m39.8711 56.5889.0018.6428-.5593.3229-.0018-.6427z" fill="#f9607f"/></g></g></g><g><g><g><path d="m40.4337 55.6203.0018.6428-.5644.3258-.0018-.6427z" fill="#f9607f"/></g></g></g><g><g><g><path d="m40.9948 55.9401.0018.6428-.5593.3229-.0018-.6427z" fill="#f9607f"/></g></g></g><g><g><g><path d="m41.5523 54.9745.0019.6427-.5594.3229-.0018-.6427z" fill="#f9607f"/></g></g></g><g><g><g><path d="m42.1135 55.2943.0018.6427-.5593.3229-.0018-.6427z" fill="#f9607f"/></g></g></g></g><g><g><g><path d="m42.3649 56.5889.0008.4324-10.63 6.1373-.0008-.4325z" fill="#bac1ce"/></g></g></g><g><g><g><g><path d="m32.5929 65.2642.0018.6428-.5593.3229-.0018-.6427z" fill="#9ad898"/></g></g></g><g><g><g><path d="m33.154 65.584.0019.6428-.5594.3229-.0018-.6427z" fill="#9ad898"/></g></g></g><g><g><g><path d="m33.7116 64.6184.0018.6427-.5594.3229-.0018-.6427z" fill="#9ad898"/></g></g></g><g><g><g><path d="m34.2727 64.9382.0018.6427-.5593.3229-.0018-.6427z" fill="#9ad898"/></g></g></g><g><g><g><path d="m34.8302 63.9725.0019.6427-.5594.323-.0018-.6428z" fill="#9ad898"/></g></g></g><g><g><g><path d="m35.3964 64.2894.0018.6427-.5643.3259-.0018-.6428z" fill="#9ad898"/></g></g></g><g><g><g><path d="m35.9539 63.3237.0019.6428-.5594.3229-.0018-.6427z" fill="#9ad898"/></g></g></g><g><g><g><path d="m36.5151 63.6435.0018.6428-.5593.3229-.0018-.6427z" fill="#9ad898"/></g></g></g><g><g><g><path d="m37.0726 62.6779.0018.6427-.5593.3229-.0018-.6427z" fill="#9ad898"/></g></g></g><g><g><g><path d="m37.6338 62.9977.0018.6427-.5594.3229-.0018-.6427z" fill="#9ad898"/></g></g></g><g><g><g><path d="m38.1913 62.032.0018.6427-.5593.323-.0019-.6428z" fill="#9ad898"/></g></g></g><g><g><g><path d="m38.7524 62.3518.0019.6427-.5594.323-.0018-.6428z" fill="#9ad898"/></g></g></g><g><g><g><path d="m39.3099 61.3861.0019.6428-.5594.3229-.0018-.6427z" fill="#9ad898"/></g></g></g><g><g><g><path d="m39.8711 61.7059.0018.6428-.5593.3229-.0018-.6427z" fill="#9ad898"/></g></g></g><g><g><g><path d="m40.4337 60.7374.0018.6427-.5644.3258-.0018-.6427z" fill="#9ad898"/></g></g></g><g><g><g><path d="m40.9948 61.0572.0018.6427-.5593.3229-.0018-.6427z" fill="#9ad898"/></g></g></g><g><g><g><path d="m41.5523 60.0915.0019.6427-.5594.323-.0018-.6428z" fill="#9ad898"/></g></g></g><g><g><g><path d="m42.1135 60.4113.0018.6427-.5593.323-.0018-.6428z" fill="#9ad898"/></g></g></g></g><g><g><g><path d="m42.3649 61.7059.0008.4325-10.63 6.1372-.0008-.4324z" fill="#bac1ce"/></g></g></g><g><g><g><g><g><path d="m17.8751 38.5913-.0011.3851 11.6926 6.7506.001-.385z" fill="#e63044"/></g></g></g><g><g><g><path d="m17.8697 40.5168-.0011.3852 11.6925 6.7507.0011-.3853z" fill="#e63044"/></g></g></g><g><g><g><path d="m17.8669 41.4796-.0011.385 11.6926 6.7507.0011-.385z" fill="#e63044"/></g></g></g><g><g><g><path d="m17.8724 39.5541-.0011.3851 11.6925 6.7506.0011-.385z" fill="#e63044"/></g></g></g><g><g><g><path d="m17.856 45.3305-.0011.3851 11.6925 6.7507.0011-.3851z" fill="#e63044"/></g></g></g><g><g><g><path d="m17.8588 44.3677-.0011.3852 11.6925 6.7507.0011-.3852z" fill="#e63044"/></g></g></g><g enable-background="new"><g><g><g><path d="m17.8615 43.4051-.0011.385 11.6925 6.7507.0011-.3851z" fill="#e63044"/></g></g></g><g><g><g><path d="m17.8642 42.4422-.0011.3853 11.6925 6.7506.0011-.3852z" fill="#e63044"/></g></g></g></g></g><g><g><g><g><path d="m17.8751 55.6612-.0011.3851 11.6926 6.7507.001-.3851z" fill="#e63044"/></g></g></g><g><g><g><path d="m17.8697 57.5867-.0011.3852 11.6925 6.7507.0011-.3852z" fill="#e63044"/></g></g></g><g><g><g><path d="m17.8669 58.5495-.0011.3851 11.6926 6.7506.0011-.385z" fill="#e63044"/></g></g></g><g><g><g><path d="m17.8724 56.624-.0011.3851 11.6925 6.7507.0011-.3851z" fill="#e63044"/></g></g></g><g><g><g><path d="m17.856 62.4005-.0011.385 11.6925 6.7507.0011-.3851z" fill="#e63044"/></g></g></g><g><g><g><path d="m17.8588 61.4376-.0011.3852 11.6925 6.7507.0011-.3852z" fill="#e63044"/></g></g></g><g enable-background="new"><g><g><g><path d="m17.8615 60.475-.0011.385 11.6925 6.7507.0011-.3851z" fill="#e63044"/></g></g></g><g><g><g><path d="m17.8642 59.5122-.0011.3852 11.6925 6.7506.0011-.3852z" fill="#e63044"/></g></g></g></g></g></g></g><g><g><g><path d="m75.6129 35.2745-.083 28.6438-13.4581 7.821.0829-28.6437z" fill="#4562ef"/></g></g><g><g><path d="m74.742 36.7838-.2986.1734-.0758 26.2819.2976.1804z" fill="#576cfb"/></g></g><g><g><path d="m74.3676 63.2391v.0002l-11.4236 6.6371-.001.3538 11.7222-6.8107z" fill="#748bfd"/></g></g><g><g><path d="m74.4193 36.9331-11.4237 6.6372-.0758 26.282 11.4237-6.6372z" fill="#3a5bd6"/></g></g><g><g><path d="m62.1452 43.0956-.083 28.6437-13.5463-7.821.083-28.6437z" fill="#576cfb"/></g></g><g><g><path d="m75.6129 35.2745-13.4582 7.8211-13.5463-7.821 13.4582-7.821z" fill="#748bfd"/></g></g><g><g enable-background="new"><g><g><g><path d="m70.9392 33.9987v1.1228l-8.8429 5.1538.0289-1.1545z" fill="#d4dae8"/></g></g></g><g><g><g><path d="m62.1252 39.1208-.0289 1.1545-8.8971-5.1221.0543-1.1545z" fill="#e4e8f4"/></g></g></g><g><g><g><path d="m70.9392 33.9987-8.814 5.1221-8.8717-5.1221 8.814-5.1221z" fill="#fff"/></g></g></g></g></g><g><g><g><g><path d="m64.2121 44.2394.0019.6427-.5594.3229-.0018-.6427z" fill="#f9bb4a"/></g></g></g><g><g><g><path d="m64.7733 44.5592.0018.6427-.5593.3229-.0018-.6427z" fill="#f9bb4a"/></g></g></g><g><g><g><path d="m65.3308 43.5935.0018.6427-.5593.323-.0018-.6428z" fill="#f9bb4a"/></g></g></g><g><g><g><path d="m65.892 43.9133.0018.6427-.5593.323-.0019-.6428z" fill="#f9bb4a"/></g></g></g><g><g><g><path d="m66.4495 42.9476.0018.6428-.5593.3229-.0018-.6427z" fill="#f9bb4a"/></g></g></g><g><g><g><path d="m67.0157 43.2645.0018.6427-.5644.3259-.0018-.6427z" fill="#f9bb4a"/></g></g></g><g><g><g><path d="m67.5732 42.2989.0018.6427-.5593.3229-.0018-.6427z" fill="#f9bb4a"/></g></g></g><g><g><g><path d="m68.1344 42.6187.0018.6427-.5594.3229-.0018-.6427z" fill="#f9bb4a"/></g></g></g><g><g><g><path d="m68.6919 41.653.0018.6427-.5593.323-.0019-.6428z" fill="#f9bb4a"/></g></g></g><g><g><g><path d="m69.253 41.9728.0018.6427-.5593.323-.0018-.6428z" fill="#f9bb4a"/></g></g></g><g><g><g><path d="m69.8105 41.0071.0019.6428-.5594.3229-.0018-.6427z" fill="#f9bb4a"/></g></g></g><g><g><g><path d="m70.3717 41.3269.0018.6428-.5593.3229-.0018-.6427z" fill="#f9bb4a"/></g></g></g><g><g><g><path d="m70.9292 40.3613.0018.6427-.5593.3229-.0018-.6427z" fill="#f9bb4a"/></g></g></g><g><g><g><path d="m71.4904 40.6811.0018.6427-.5594.3229-.0018-.6427z" fill="#f9bb4a"/></g></g></g><g><g><g><path d="m72.0529 39.7125.0018.6427-.5643.3259-.0019-.6428z" fill="#f9bb4a"/></g></g></g><g><g><g><path d="m72.6141 40.0323.0018.6427-.5593.3229-.0019-.6427z" fill="#f9bb4a"/></g></g></g><g><g><g><path d="m73.1716 39.0666.0018.6428-.5593.3229-.0018-.6428z" fill="#f9bb4a"/></g></g></g><g><g><g><path d="m73.7327 39.3864.0019.6428-.5594.3229-.0018-.6427z" fill="#f9bb4a"/></g></g></g></g><g><g><g><path d="m73.9842 40.6811.0007.4324-10.63 6.1372-.0007-.4324z" fill="#bac1ce"/></g></g></g><g><g><g><g><path d="m64.2121 49.3564.0019.6427-.5594.3229-.0018-.6427z" fill="#75ca75"/></g></g></g><g><g><g><path d="m64.7733 49.6762.0018.6427-.5593.3229-.0018-.6427z" fill="#75ca75"/></g></g></g><g><g><g><path d="m65.3308 48.7105.0018.6427-.5593.323-.0018-.6428z" fill="#75ca75"/></g></g></g><g><g><g><path d="m65.892 49.0303.0018.6427-.5593.323-.0019-.6428z" fill="#75ca75"/></g></g></g><g><g><g><path d="m66.4495 48.0646.0018.6428-.5593.3229-.0018-.6427z" fill="#75ca75"/></g></g></g><g><g><g><path d="m67.0157 48.3815.0018.6428-.5644.3258-.0018-.6427z" fill="#75ca75"/></g></g></g><g><g><g><path d="m67.5732 47.4159.0018.6427-.5593.3229-.0018-.6427z" fill="#75ca75"/></g></g></g><g><g><g><path d="m68.1344 47.7357.0018.6427-.5594.3229-.0018-.6427z" fill="#75ca75"/></g></g></g><g><g><g><path d="m68.6919 46.77.0018.6427-.5593.323-.0019-.6428z" fill="#75ca75"/></g></g></g><g><g><g><path d="m69.253 47.0898.0018.6427-.5593.323-.0018-.6428z" fill="#75ca75"/></g></g></g><g><g><g><path d="m69.8105 46.1241.0019.6428-.5594.3229-.0018-.6427z" fill="#75ca75"/></g></g></g><g><g><g><path d="m70.3717 46.4439.0018.6428-.5593.3229-.0018-.6427z" fill="#75ca75"/></g></g></g><g><g><g><path d="m70.9292 45.4783.0018.6427-.5593.3229-.0018-.6427z" fill="#75ca75"/></g></g></g><g><g><g><path d="m71.4904 45.7981.0018.6427-.5594.3229-.0018-.6427z" fill="#75ca75"/></g></g></g><g><g><g><path d="m72.0529 44.8295.0018.6427-.5643.3259-.0019-.6428z" fill="#75ca75"/></g></g></g><g><g><g><path d="m72.6141 45.1493.0018.6427-.5593.323-.0019-.6428z" fill="#75ca75"/></g></g></g><g><g><g><path d="m73.1716 44.1836.0018.6428-.5593.3229-.0018-.6427z" fill="#75ca75"/></g></g></g><g><g><g><path d="m73.7327 44.5034.0019.6428-.5594.3229-.0018-.6427z" fill="#75ca75"/></g></g></g></g><g><g><g><path d="m73.9842 45.7981.0007.4324-10.63 6.1372-.0007-.4324z" fill="#bac1ce"/></g></g></g><g><g><g><g><path d="m64.2121 54.4734.0019.6427-.5594.323-.0018-.6428z" fill="#748bfd"/></g></g></g><g><g><g><path d="m64.7733 54.7932.0018.6427-.5593.323-.0018-.6428z" fill="#748bfd"/></g></g></g><g><g><g><path d="m65.3308 53.8275.0018.6428-.5593.3229-.0018-.6427z" fill="#748bfd"/></g></g></g><g><g><g><path d="m65.892 54.1473.0018.6428-.5593.3229-.0019-.6427z" fill="#748bfd"/></g></g></g><g><g><g><path d="m66.4495 53.1817.0018.6427-.5593.3229-.0018-.6427z" fill="#748bfd"/></g></g></g><g><g><g><path d="m67.0157 53.4986.0018.6427-.5644.3258-.0018-.6427z" fill="#748bfd"/></g></g></g><g><g><g><path d="m67.5732 52.5329.0018.6427-.5593.323-.0018-.6428z" fill="#748bfd"/></g></g></g><g><g><g><path d="m68.1344 52.8527.0018.6427-.5594.323-.0018-.6428z" fill="#748bfd"/></g></g></g><g><g><g><path d="m68.6919 51.887.0018.6428-.5593.3229-.0019-.6427z" fill="#748bfd"/></g></g></g><g><g><g><path d="m69.253 52.2068.0018.6428-.5593.3229-.0018-.6427z" fill="#748bfd"/></g></g></g><g><g><g><path d="m69.8105 51.2412.0019.6427-.5594.3229-.0018-.6427z" fill="#748bfd"/></g></g></g><g><g><g><path d="m70.3717 51.561.0018.6427-.5593.3229-.0018-.6427z" fill="#748bfd"/></g></g></g><g><g><g><path d="m70.9292 50.5953.0018.6427-.5593.323-.0018-.6428z" fill="#748bfd"/></g></g></g><g><g><g><path d="m71.4904 50.9151.0018.6427-.5594.323-.0018-.6428z" fill="#748bfd"/></g></g></g><g><g><g><path d="m72.0529 49.9465.0018.6428-.5643.3258-.0019-.6427z" fill="#748bfd"/></g></g></g><g><g><g><path d="m72.6141 50.2663.0018.6428-.5593.3229-.0019-.6427z" fill="#748bfd"/></g></g></g><g><g><g><path d="m73.1716 49.3007.0018.6427-.5593.3229-.0018-.6427z" fill="#748bfd"/></g></g></g><g><g><g><path d="m73.7327 49.6205.0019.6427-.5594.3229-.0018-.6427z" fill="#748bfd"/></g></g></g></g><g><g><g><path d="m73.9842 50.9151.0007.4324-10.63 6.1372-.0007-.4324z" fill="#bac1ce"/></g></g></g><g><g><g><g><path d="m64.2121 59.5904.0019.6428-.5594.3229-.0018-.6427z" fill="#f9607f"/></g></g></g><g><g><g><path d="m64.7733 59.9102.0018.6428-.5593.3229-.0018-.6427z" fill="#f9607f"/></g></g></g><g><g><g><path d="m65.3308 58.9446.0018.6427-.5593.3229-.0018-.6427z" fill="#f9607f"/></g></g></g><g><g><g><path d="m65.892 59.2644.0018.6427-.5593.3229-.0019-.6427z" fill="#f9607f"/></g></g></g><g><g><g><path d="m66.4495 58.2987.0018.6427-.5593.323-.0018-.6428z" fill="#f9607f"/></g></g></g><g><g><g><path d="m67.0157 58.6156.0018.6427-.5644.3259-.0018-.6428z" fill="#f9607f"/></g></g></g><g><g><g><path d="m67.5732 57.6499.0018.6428-.5593.3229-.0018-.6427z" fill="#f9607f"/></g></g></g><g><g><g><path d="m68.1344 57.9697.0018.6428-.5594.3229-.0018-.6427z" fill="#f9607f"/></g></g></g><g><g><g><path d="m68.6919 57.0041.0018.6427-.5593.3229-.0019-.6427z" fill="#f9607f"/></g></g></g><g><g><g><path d="m69.253 57.3239.0018.6427-.5593.3229-.0018-.6427z" fill="#f9607f"/></g></g></g><g><g><g><path d="m69.8105 56.3582.0019.6427-.5594.323-.0018-.6428z" fill="#f9607f"/></g></g></g><g><g><g><path d="m70.3717 56.678.0018.6427-.5593.323-.0018-.6428z" fill="#f9607f"/></g></g></g><g><g><g><path d="m70.9292 55.7123.0018.6428-.5593.3229-.0018-.6427z" fill="#f9607f"/></g></g></g><g><g><g><path d="m71.4904 56.0321.0018.6428-.5594.3229-.0018-.6427z" fill="#f9607f"/></g></g></g><g><g><g><path d="m72.0529 55.0635.0018.6428-.5643.3258-.0019-.6427z" fill="#f9607f"/></g></g></g><g><g><g><path d="m72.6141 55.3834.0018.6427-.5593.3229-.0019-.6427z" fill="#f9607f"/></g></g></g><g><g><g><path d="m73.1716 54.4177.0018.6427-.5593.323-.0018-.6428z" fill="#f9607f"/></g></g></g><g><g><g><path d="m73.7327 54.7375.0019.6427-.5594.323-.0018-.6428z" fill="#f9607f"/></g></g></g></g><g><g><g><path d="m73.9842 56.0321.0007.4324-10.63 6.1373-.0007-.4325z" fill="#bac1ce"/></g></g></g><g><g><g><g><path d="m64.2121 64.7074.0019.6428-.5594.3229-.0018-.6427z" fill="#9ad898"/></g></g></g><g><g><g><path d="m64.7733 65.0272.0018.6428-.5593.3229-.0018-.6427z" fill="#9ad898"/></g></g></g><g><g><g><path d="m65.3308 64.0616.0018.6427-.5593.3229-.0018-.6427z" fill="#9ad898"/></g></g></g><g><g><g><path d="m65.892 64.3814.0018.6427-.5593.3229-.0019-.6427z" fill="#9ad898"/></g></g></g><g><g><g><path d="m66.4495 63.4157.0018.6427-.5593.323-.0018-.6428z" fill="#9ad898"/></g></g></g><g><g><g><path d="m67.0157 63.7326.0018.6427-.5644.3259-.0018-.6428z" fill="#9ad898"/></g></g></g><g><g><g><path d="m67.5732 62.7669.0018.6428-.5593.3229-.0018-.6427z" fill="#9ad898"/></g></g></g><g><g><g><path d="m68.1344 63.0867.0018.6428-.5594.3229-.0018-.6427z" fill="#9ad898"/></g></g></g><g><g><g><path d="m68.6919 62.1211.0018.6427-.5593.3229-.0019-.6427z" fill="#9ad898"/></g></g></g><g><g><g><path d="m69.253 62.4409.0018.6427-.5593.3229-.0018-.6427z" fill="#9ad898"/></g></g></g><g><g><g><path d="m69.8105 61.4752.0019.6427-.5594.323-.0018-.6428z" fill="#9ad898"/></g></g></g><g><g><g><path d="m70.3717 61.795.0018.6427-.5593.323-.0018-.6428z" fill="#9ad898"/></g></g></g><g><g><g><path d="m70.9292 60.8293.0018.6428-.5593.3229-.0018-.6427z" fill="#9ad898"/></g></g></g><g><g><g><path d="m71.4904 61.1491.0018.6428-.5594.3229-.0018-.6427z" fill="#9ad898"/></g></g></g><g><g><g><path d="m72.0529 60.1806.0018.6427-.5643.3258-.0019-.6427z" fill="#9ad898"/></g></g></g><g><g><g><path d="m72.6141 60.5004.0018.6427-.5593.3229-.0019-.6427z" fill="#9ad898"/></g></g></g><g><g><g><path d="m73.1716 59.5347.0018.6427-.5593.323-.0018-.6428z" fill="#9ad898"/></g></g></g><g><g><g><path d="m73.7327 59.8545.0019.6427-.5594.323-.0018-.6428z" fill="#9ad898"/></g></g></g></g><g><g><g><path d="m73.9842 61.1491.0007.4325-10.63 6.1372-.0007-.4324z" fill="#bac1ce"/></g></g></g><g><g><g><g><g><path d="m49.4944 38.0345-.0011.3851 11.6925 6.7506.0011-.385z" fill="#4562ef"/></g></g></g><g><g><g><path d="m49.4889 39.96-.0011.3852 11.6926 6.7507.001-.3852z" fill="#4562ef"/></g></g></g><g><g><g><path d="m49.4862 40.9228-.0011.385 11.6925 6.7507.0011-.385z" fill="#4562ef"/></g></g></g><g><g><g><path d="m49.4917 38.9973-.0011.3851 11.6925 6.7507.0011-.3851z" fill="#4562ef"/></g></g></g><g><g><g><path d="m49.4753 44.7737-.0011.3851 11.6925 6.7507.0011-.3851z" fill="#4562ef"/></g></g></g><g><g><g><path d="m49.478 43.8109-.0011.3852 11.6925 6.7507.0011-.3852z" fill="#4562ef"/></g></g></g><g enable-background="new"><g><g><g><path d="m49.4807 42.8483-.0011.385 11.6926 6.7507.0011-.3851z" fill="#4562ef"/></g></g></g><g><g><g><path d="m49.4835 41.8855-.0011.3852 11.6925 6.7506.0011-.3852z" fill="#4562ef"/></g></g></g></g></g><g><g><g><g><path d="m49.4944 55.1044-.0011.3851 11.6925 6.7507.0011-.3851z" fill="#4562ef"/></g></g></g><g><g><g><path d="m49.4889 57.0299-.0011.3852 11.6926 6.7507.001-.3852z" fill="#4562ef"/></g></g></g><g><g><g><path d="m49.4862 57.9927-.0011.3851 11.6925 6.7506.0011-.385z" fill="#4562ef"/></g></g></g><g><g><g><path d="m49.4917 56.0672-.0011.3851 11.6925 6.7507.0011-.3851z" fill="#4562ef"/></g></g></g><g><g><g><path d="m49.4753 61.8437-.0011.385 11.6925 6.7507.0011-.3851z" fill="#4562ef"/></g></g></g><g><g><g><path d="m49.478 60.8808-.0011.3853 11.6925 6.7506.0011-.3852z" fill="#4562ef"/></g></g></g><g enable-background="new"><g><g><g><path d="m49.4807 59.9182-.0011.385 11.6926 6.7507.0011-.385z" fill="#4562ef"/></g></g></g><g><g><g><path d="m49.4835 58.9554-.0011.3852 11.6925 6.7507.0011-.3853z" fill="#4562ef"/></g></g></g></g></g></g></g><g><g><g><path d="m59.2291 44.6742-.083 28.6437-13.4581 7.8211.0829-28.6438z" fill="#37617b"/></g></g><g><g><path d="m58.3582 46.1834-.2986.1735-.0758 26.2819.2976.1804z" fill="#416e84"/></g></g><g><g><path d="m57.9838 72.6388v.0001l-11.4236 6.6372-.001.3537 11.7222-6.8106z" fill="#4c7891"/></g></g><g><g><path d="m58.0355 46.3328-11.4237 6.6371-.0757 26.2821 11.4236-6.6372z" fill="#30596d"/></g></g><g><g><path d="m45.7614 52.4952-.083 28.6438-13.5463-7.821.083-28.6437z" fill="#416e84"/></g></g><g><g><path d="m59.2291 44.6742-13.4582 7.821-13.5463-7.8209 13.4582-7.8211z" fill="#4c7891"/></g></g><g><g enable-background="new"><g><g><g><path d="m54.5554 43.3984v1.1228l-8.8429 5.1538.0289-1.1545z" fill="#d4dae8"/></g></g></g><g><g><g><path d="m45.7414 48.5205-.0289 1.1545-8.8971-5.1221.0543-1.1545z" fill="#e4e8f4"/></g></g></g><g><g><g><path d="m54.5554 43.3984-8.814 5.1221-8.8717-5.1221 8.814-5.1221z" fill="#fff"/></g></g></g></g></g><g><g><g><g><path d="m47.8283 53.639.0019.6427-.5594.323-.0018-.6427z" fill="#f9bb4a"/></g></g></g><g><g><g><path d="m48.3895 53.9588.0018.6428-.5593.3229-.0018-.6428z" fill="#f9bb4a"/></g></g></g><g><g><g><path d="m48.947 52.9932.0018.6427-.5593.3229-.0018-.6427z" fill="#f9bb4a"/></g></g></g><g><g><g><path d="m49.5082 53.313.0018.6427-.5593.3229-.0019-.6427z" fill="#f9bb4a"/></g></g></g><g><g><g><path d="m50.0657 52.3473.0018.6427-.5593.323-.0019-.6428z" fill="#f9bb4a"/></g></g></g><g><g><g><path d="m50.6319 52.6642.0018.6427-.5644.3259-.0018-.6428z" fill="#f9bb4a"/></g></g></g><g><g><g><path d="m51.1894 51.6985.0018.6428-.5593.3229-.0018-.6428z" fill="#f9bb4a"/></g></g></g><g><g><g><path d="m51.7506 52.0183.0018.6427-.5594.323-.0018-.6427z" fill="#f9bb4a"/></g></g></g><g><g><g><path d="m52.3081 51.0527.0018.6427-.5593.3229-.0019-.6427z" fill="#f9bb4a"/></g></g></g><g><g><g><path d="m52.8692 51.3724.0018.6428-.5593.3229-.0018-.6427z" fill="#f9bb4a"/></g></g></g><g><g><g><path d="m53.4267 50.4068.0019.6427-.5594.3229-.0018-.6427z" fill="#f9bb4a"/></g></g></g><g><g><g><path d="m53.9879 50.7266.0018.6427-.5593.323-.0018-.6428z" fill="#f9bb4a"/></g></g></g><g><g><g><path d="m54.5454 49.7609.0018.6428-.5593.3229-.0018-.6427z" fill="#f9bb4a"/></g></g></g><g><g><g><path d="m55.1066 50.0807.0018.6428-.5594.3229-.0018-.6427z" fill="#f9bb4a"/></g></g></g><g><g><g><path d="m55.6691 49.1121.0018.6428-.5643.3258-.0019-.6427z" fill="#f9bb4a"/></g></g></g><g><g><g><path d="m56.2303 49.4319.0018.6428-.5593.3229-.0019-.6427z" fill="#f9bb4a"/></g></g></g><g><g><g><path d="m56.7878 48.4663.0018.6427-.5593.3229-.0018-.6427z" fill="#f9bb4a"/></g></g></g><g><g><g><path d="m57.3489 48.7861.0019.6427-.5594.3229-.0018-.6427z" fill="#f9bb4a"/></g></g></g></g><g><g><g><path d="m57.6004 50.0807.0007.4324-10.63 6.1373-.0007-.4325z" fill="#bac1ce"/></g></g></g><g><g><g><g><path d="m47.8283 58.756.0019.6428-.5594.3229-.0018-.6427z" fill="#75ca75"/></g></g></g><g><g><g><path d="m48.3895 59.0758.0018.6428-.5593.3229-.0018-.6427z" fill="#75ca75"/></g></g></g><g><g><g><path d="m48.947 58.1102.0018.6427-.5593.3229-.0018-.6427z" fill="#75ca75"/></g></g></g><g><g><g><path d="m49.5082 58.43.0018.6427-.5593.3229-.0019-.6427z" fill="#75ca75"/></g></g></g><g><g><g><path d="m50.0657 57.4643.0018.6427-.5593.323-.0019-.6428z" fill="#75ca75"/></g></g></g><g><g><g><path d="m50.6319 57.7812.0018.6427-.5644.3259-.0018-.6428z" fill="#75ca75"/></g></g></g><g><g><g><path d="m51.1894 56.8155.0018.6428-.5593.3229-.0018-.6427z" fill="#75ca75"/></g></g></g><g><g><g><path d="m51.7506 57.1353.0018.6428-.5594.3229-.0018-.6427z" fill="#75ca75"/></g></g></g><g><g><g><path d="m52.3081 56.1697.0018.6427-.5593.3229-.0019-.6427z" fill="#75ca75"/></g></g></g><g><g><g><path d="m52.8692 56.4895.0018.6427-.5593.3229-.0018-.6427z" fill="#75ca75"/></g></g></g><g><g><g><path d="m53.4267 55.5238.0019.6427-.5594.323-.0018-.6428z" fill="#75ca75"/></g></g></g><g><g><g><path d="m53.9879 55.8436.0018.6427-.5593.323-.0018-.6428z" fill="#75ca75"/></g></g></g><g><g><g><path d="m54.5454 54.8779.0018.6428-.5593.3229-.0018-.6427z" fill="#75ca75"/></g></g></g><g><g><g><path d="m55.1066 55.1977.0018.6428-.5594.3229-.0018-.6427z" fill="#75ca75"/></g></g></g><g><g><g><path d="m55.6691 54.2292.0018.6427-.5643.3258-.0019-.6427z" fill="#75ca75"/></g></g></g><g><g><g><path d="m56.2303 54.549.0018.6427-.5593.3229-.0019-.6427z" fill="#75ca75"/></g></g></g><g><g><g><path d="m56.7878 53.5833.0018.6427-.5593.323-.0018-.6428z" fill="#75ca75"/></g></g></g><g><g><g><path d="m57.3489 53.9031.0019.6427-.5594.323-.0018-.6428z" fill="#75ca75"/></g></g></g></g><g><g><g><path d="m57.6004 55.1977.0007.4325-10.63 6.1372-.0007-.4324z" fill="#bac1ce"/></g></g></g><g><g><g><g><path d="m47.8283 63.8731.0019.6427-.5594.3229-.0018-.6427z" fill="#748bfd"/></g></g></g><g><g><g><path d="m48.3895 64.1929.0018.6427-.5593.3229-.0018-.6427z" fill="#748bfd"/></g></g></g><g><g><g><path d="m48.947 63.2272.0018.6427-.5593.323-.0018-.6428z" fill="#748bfd"/></g></g></g><g><g><g><path d="m49.5082 63.547.0018.6427-.5593.323-.0019-.6428z" fill="#748bfd"/></g></g></g><g><g><g><path d="m50.0657 62.5813.0018.6428-.5593.3229-.0019-.6427z" fill="#748bfd"/></g></g></g><g><g><g><path d="m50.6319 62.8982.0018.6428-.5644.3258-.0018-.6427z" fill="#748bfd"/></g></g></g><g><g><g><path d="m51.1894 61.9326.0018.6427-.5593.3229-.0018-.6427z" fill="#748bfd"/></g></g></g><g><g><g><path d="m51.7506 62.2524.0018.6427-.5594.3229-.0018-.6427z" fill="#748bfd"/></g></g></g><g><g><g><path d="m52.3081 61.2867.0018.6427-.5593.323-.0019-.6428z" fill="#748bfd"/></g></g></g><g><g><g><path d="m52.8692 61.6065.0018.6427-.5593.323-.0018-.6428z" fill="#748bfd"/></g></g></g><g><g><g><path d="m53.4267 60.6408.0019.6428-.5594.3229-.0018-.6427z" fill="#748bfd"/></g></g></g><g><g><g><path d="m53.9879 60.9606.0018.6428-.5593.3229-.0018-.6427z" fill="#748bfd"/></g></g></g><g><g><g><path d="m54.5454 59.995.0018.6427-.5593.3229-.0018-.6427z" fill="#748bfd"/></g></g></g><g><g><g><path d="m55.1066 60.3148.0018.6427-.5594.3229-.0018-.6427z" fill="#748bfd"/></g></g></g><g><g><g><path d="m55.6691 59.3462.0018.6427-.5643.3259-.0019-.6428z" fill="#748bfd"/></g></g></g><g><g><g><path d="m56.2303 59.666.0018.6427-.5593.323-.0019-.6428z" fill="#748bfd"/></g></g></g><g><g><g><path d="m56.7878 58.7003.0018.6428-.5593.3229-.0018-.6427z" fill="#748bfd"/></g></g></g><g><g><g><path d="m57.3489 59.0201.0019.6428-.5594.3229-.0018-.6427z" fill="#748bfd"/></g></g></g></g><g><g><g><path d="m57.6004 60.3148.0007.4324-10.63 6.1372-.0007-.4324z" fill="#bac1ce"/></g></g></g><g><g><g><g><path d="m47.8283 68.9901.0019.6427-.5594.323-.0018-.6428z" fill="#f9607f"/></g></g></g><g><g><g><path d="m48.3895 69.3099.0018.6427-.5593.323-.0018-.6428z" fill="#f9607f"/></g></g></g><g><g><g><path d="m48.947 68.3442.0018.6428-.5593.3229-.0018-.6427z" fill="#f9607f"/></g></g></g><g><g><g><path d="m49.5082 68.664.0018.6428-.5593.3229-.0019-.6427z" fill="#f9607f"/></g></g></g><g><g><g><path d="m50.0657 67.6984.0018.6427-.5593.3229-.0019-.6427z" fill="#f9607f"/></g></g></g><g><g><g><path d="m50.6319 68.0153.0018.6427-.5644.3258-.0018-.6427z" fill="#f9607f"/></g></g></g><g><g><g><path d="m51.1894 67.0496.0018.6427-.5593.323-.0018-.6428z" fill="#f9607f"/></g></g></g><g><g><g><path d="m51.7506 67.3694.0018.6427-.5594.323-.0018-.6428z" fill="#f9607f"/></g></g></g><g><g><g><path d="m52.3081 66.4037.0018.6428-.5593.3229-.0019-.6428z" fill="#f9607f"/></g></g></g><g><g><g><path d="m52.8692 66.7235.0018.6427-.5593.323-.0018-.6427z" fill="#f9607f"/></g></g></g><g><g><g><path d="m53.4267 65.7579.0019.6427-.5594.3229-.0018-.6427z" fill="#f9607f"/></g></g></g><g><g><g><path d="m53.9879 66.0777.0018.6427-.5593.3229-.0018-.6427z" fill="#f9607f"/></g></g></g><g><g><g><path d="m54.5454 65.112.0018.6427-.5593.323-.0018-.6428z" fill="#f9607f"/></g></g></g><g><g><g><path d="m55.1066 65.4318.0018.6427-.5594.323-.0018-.6428z" fill="#f9607f"/></g></g></g><g><g><g><path d="m55.6691 64.4632.0018.6427-.5643.3259-.0019-.6427z" fill="#f9607f"/></g></g></g><g><g><g><path d="m56.2303 64.783.0018.6428-.5593.3229-.0019-.6428z" fill="#f9607f"/></g></g></g><g><g><g><path d="m56.7878 63.8173.0018.6428-.5593.3229-.0018-.6427z" fill="#f9607f"/></g></g></g><g><g><g><path d="m57.3489 64.1372.0019.6427-.5594.3229-.0018-.6427z" fill="#f9607f"/></g></g></g></g><g><g><g><path d="m57.6004 65.4318.0007.4324-10.63 6.1372-.0007-.4324z" fill="#bac1ce"/></g></g></g><g><g><g><g><path d="m47.8283 74.1071.0019.6427-.5594.323-.0018-.6428z" fill="#9ad898"/></g></g></g><g><g><g><path d="m48.3895 74.4269.0018.6427-.5593.323-.0018-.6428z" fill="#9ad898"/></g></g></g><g><g><g><path d="m48.947 73.4612.0018.6428-.5593.3229-.0018-.6427z" fill="#9ad898"/></g></g></g><g><g><g><path d="m49.5082 73.781.0018.6428-.5593.3229-.0019-.6427z" fill="#9ad898"/></g></g></g><g><g><g><path d="m50.0657 72.8154.0018.6427-.5593.3229-.0019-.6427z" fill="#9ad898"/></g></g></g><g><g><g><path d="m50.6319 73.1323.0018.6427-.5644.3258-.0018-.6427z" fill="#9ad898"/></g></g></g><g><g><g><path d="m51.1894 72.1666.0018.6427-.5593.323-.0018-.6428z" fill="#9ad898"/></g></g></g><g><g><g><path d="m51.7506 72.4864.0018.6427-.5594.323-.0018-.6428z" fill="#9ad898"/></g></g></g><g><g><g><path d="m52.3081 71.5207.0018.6428-.5593.3229-.0019-.6427z" fill="#9ad898"/></g></g></g><g><g><g><path d="m52.8692 71.8405.0018.6428-.5593.3229-.0018-.6427z" fill="#9ad898"/></g></g></g><g><g><g><path d="m53.4267 70.8749.0019.6427-.5594.3229-.0018-.6427z" fill="#9ad898"/></g></g></g><g><g><g><path d="m53.9879 71.1947.0018.6427-.5593.3229-.0018-.6427z" fill="#9ad898"/></g></g></g><g><g><g><path d="m54.5454 70.229.0018.6427-.5593.323-.0018-.6428z" fill="#9ad898"/></g></g></g><g><g><g><path d="m55.1066 70.5488.0018.6427-.5594.323-.0018-.6428z" fill="#9ad898"/></g></g></g><g><g><g><path d="m55.6691 69.5802.0018.6428-.5643.3258-.0019-.6427z" fill="#9ad898"/></g></g></g><g><g><g><path d="m56.2303 69.9.0018.6428-.5593.3229-.0019-.6427z" fill="#9ad898"/></g></g></g><g><g><g><path d="m56.7878 68.9344.0018.6427-.5593.3229-.0018-.6427z" fill="#9ad898"/></g></g></g><g><g><g><path d="m57.3489 69.2542.0019.6427-.5594.3229-.0018-.6427z" fill="#9ad898"/></g></g></g></g><g><g><g><path d="m57.6004 70.5488.0007.4324-10.63 6.1372-.0007-.4324z" fill="#bac1ce"/></g></g></g><g><g><g><g><g><path d="m33.1106 47.4342-.0011.385 11.6925 6.7507.0011-.3851z" fill="#30596d"/></g></g></g><g><g><g><path d="m33.1051 49.3596-.0011.3853 11.6926 6.7506.001-.3852z" fill="#30596d"/></g></g></g><g><g><g><path d="m33.1024 50.3224-.0011.3851 11.6925 6.7507.0011-.3851z" fill="#30596d"/></g></g></g><g><g><g><path d="m33.1079 48.397-.0011.385 11.6925 6.7507.0011-.3851z" fill="#30596d"/></g></g></g><g><g><g><path d="m33.0915 54.1734-.0011.3851 11.6925 6.7506.0011-.385z" fill="#30596d"/></g></g></g><g><g><g><path d="m33.0942 53.2106-.0011.3852 11.6925 6.7507.0011-.3852z" fill="#30596d"/></g></g></g><g enable-background="new"><g><g><g><path d="m33.0969 52.2479-.0011.3851 11.6926 6.7507.0011-.3851z" fill="#30596d"/></g></g></g><g><g><g><path d="m33.0997 51.2851-.0011.3852 11.6925 6.7507.0011-.3852z" fill="#30596d"/></g></g></g></g></g><g><g><g><g><path d="m33.1106 64.5041-.0011.385 11.6925 6.7507.0011-.385z" fill="#30596d"/></g></g></g><g><g><g><path d="m33.1051 66.4296-.0011.3852 11.6926 6.7506.001-.3852z" fill="#30596d"/></g></g></g><g><g><g><path d="m33.1024 67.3924-.0011.385 11.6925 6.7507.0011-.3851z" fill="#30596d"/></g></g></g><g><g><g><path d="m33.1079 65.4669-.0011.3851 11.6925 6.7506.0011-.385z" fill="#30596d"/></g></g></g><g><g><g><path d="m33.0915 71.2433-.0011.3851 11.6925 6.7507.0011-.3851z" fill="#30596d"/></g></g></g><g><g><g><path d="m33.0942 70.2805-.0011.3852 11.6925 6.7507.0011-.3852z" fill="#30596d"/></g></g></g><g enable-background="new"><g><g><g><path d="m33.0969 69.3178-.0011.3851 11.6926 6.7507.0011-.3851z" fill="#30596d"/></g></g></g><g><g><g><path d="m33.0997 68.355-.0011.3852 11.6925 6.7507.0011-.3852z" fill="#30596d"/></g></g></g></g></g></g></g></g><g><g><path d="m65.8906 126.3333c-.1129 0-.2271-.0282-.3285-.0873l-60.1922-34.7496c-.0808-.0488-.1514-.1129-.2066-.1873l-.4555-.6391c-.1681-.2387-.1617-.5569.0167-.7853l.4812-.6185c.0539-.0693.1206-.1283.1963-.1694l24.6482-13.8408c.3182-.1745.7173-.0667.8944.2515.1784.3157.0654.716-.2502.8931l-24.6328 13.905.0885.1232 59.7315 34.4828 8.5463-5.1894c.3093-.1822.716-.0898.9034.2207s.0885.7135-.2207.9034l-8.8786 5.3921c-.1053.0641-.2233.0949-.3414.0949z" fill="#4c7891"/></g></g><g><g><g><g><path d="m61.1115 83.2106 40.054-23.2769-.0807 28.4605-40.054 23.2769z" fill="#5b5e71"/></g></g><g><g><path d="m62.8381 84.2075 36.5894-21.2632-.0688 24.4532-36.5894 21.2632z" fill="#fff"/></g></g></g><g><g><g><path d="m59.3603 82.1996 40.0541-23.2769 1.7511 1.011-40.054 23.2769z" fill="#e4e8f4"/></g></g></g><g><g><g><path d="m88.5184 127.4878 40.054-23.2769-.0057 2.0122-40.0541 23.2769z" fill="#cad0dd"/></g></g></g><g><g><path d="m61.0308 111.6711 40.054-23.2769 27.4876 15.8167-40.054 23.2769z" fill="#e4e8f4"/></g></g><g><g><path d="m64.4814 111.6661 36.6062-21.2729 14.2817 8.2278-36.6063 21.2729z" fill="#cad0dd"/></g></g><g><g><g><path d="m61.1115 83.2106-.0807 28.4605 27.4876 15.8167-.0058 2.0122-29.2387-16.8277.0864-30.4727z" fill="#d4dae8"/></g></g></g><g><g><g><g><path d="m79.5104 111.728 2.2662 1.3169 2.271-1.3112-2.2661-1.3169z" fill="#5b5e71"/></g></g></g><g><g><g><path d="m76.2579 109.8378 2.266 1.3169 2.2711-1.3112-2.266-1.3169z" fill="#5b5e71"/></g></g></g><g><g><g><path d="m73.0052 107.9476 2.2661 1.3169 2.2711-1.3112-2.2661-1.3169z" fill="#5b5e71"/></g></g></g><g><g><g><path d="m79.499 115.5027 2.2661 1.317 2.2809-1.3169-2.2661-1.3169z" fill="#5b5e71"/></g></g></g><g><g><g><path d="m76.2448 117.3816 2.2661 1.3169 2.2711-1.3112-2.2661-1.3169z" fill="#5b5e71"/></g></g></g><g><g><g><path d="m72.9921 115.4913 2.2662 1.317 5.5351-3.1958-2.2661-1.3169z" fill="#5b5e71"/></g></g></g><g><g><g><path d="m72.9938 111.7223 2.266 1.3169 2.281-1.3169-2.2661-1.3169z" fill="#5b5e71"/></g></g></g><g><g><g><path d="m69.7412 109.8321 2.266 1.3169 2.2809-1.3169-2.266-1.3169z" fill="#5b5e71"/></g></g></g><g><g><g><path d="m66.487 111.7109 2.266 1.3169 2.2711-1.3112-2.2661-1.3169z" fill="#5b5e71"/></g></g></g><g><g><g><path d="m82.7647 109.8492 2.2661 1.3169 2.2711-1.3112-2.2661-1.317z" fill="#5b5e71"/></g></g></g><g><g><g><path d="m108.8265 98.5705 2.2661 1.3169 2.2711-1.3112-2.2661-1.3169z" fill="#5b5e71"/></g></g></g><g><g><g><path d="m105.5739 96.6803 2.2661 1.3169 2.2711-1.3112-2.2661-1.3169z" fill="#5b5e71"/></g></g></g><g><g><g><path d="m102.3213 94.7901 2.266 1.3169 2.2711-1.3112-2.266-1.3169z" fill="#5b5e71"/></g></g></g><g enable-background="new"><g><g><g><path d="m92.5503 96.6632 2.2661 1.3169 2.2711-1.3112-2.2661-1.3169z" fill="#5b5e71"/></g></g></g><g><g><g><path d="m89.2961 98.5421 2.266 1.3168 2.2711-1.3112-2.266-1.3168z" fill="#5b5e71"/></g></g></g><g><g><g><path d="m95.803 98.5535 2.266 1.3168 5.5254-3.19-2.2661-1.3169z" fill="#5b5e71"/></g></g></g><g><g><g><path d="m86.0321 100.4266 2.266 1.3168 2.2711-1.3112-2.2661-1.3168z" fill="#5b5e71"/></g></g></g><g><g><g><path d="m92.5487 100.4323 2.2661 1.3169 2.2711-1.3112-2.2661-1.3169z" fill="#5b5e71"/></g></g></g><g><g><g><path d="m99.0555 100.4436 2.2661 1.317 2.2711-1.3113-2.2661-1.3169z" fill="#5b5e71"/></g></g></g><g><g><g><path d="m82.7778 102.3054 2.266 1.3169 2.2711-1.3112-2.266-1.3169z" fill="#5b5e71"/></g></g></g><g><g><g><path d="m89.2847 102.3168 2.266 1.3169 2.2711-1.3112-2.2661-1.3169z" fill="#5b5e71"/></g></g></g><g><g><g><path d="m95.8013 102.3225 2.2661 1.3169 2.2711-1.3112-2.2661-1.3169z" fill="#5b5e71"/></g></g></g><g><g><g><path d="m102.3 98.5591 3.2624 1.8959-3.2542 1.8789 2.2661 1.3169 5.5253-3.1901-5.5285-3.2128z" fill="#5b5e71"/></g></g></g><g><g><g><path d="m86.0304 104.1956 2.2661 1.3169 2.271-1.3112-2.266-1.3169z" fill="#5b5e71"/></g></g></g><g><g><g><path d="m92.5373 104.207 2.2661 1.3169 2.271-1.3112-2.2661-1.3169z" fill="#5b5e71"/></g></g></g><g><g><g><path d="m99.0539 104.2127 2.2661 1.3169 2.2711-1.3112-2.2661-1.3169z" fill="#5b5e71"/></g></g></g><g><g><g><path d="m82.7762 106.0745 2.266 1.3168 2.2711-1.3112-2.266-1.3169z" fill="#5b5e71"/></g></g></g><g><g><g><path d="m89.283 106.0858 2.2661 1.3169 2.2711-1.3112-2.2661-1.3169z" fill="#5b5e71"/></g></g></g><g><g><g><path d="m79.5121 107.959 2.2661 1.3169 2.2711-1.3113-2.2661-1.3168z" fill="#5b5e71"/></g></g></g><g><g><g><path d="m86.0288 107.9647 2.2661 1.3169 2.2711-1.3112-2.2661-1.317z" fill="#5b5e71"/></g></g></g><g><g><g><path d="m82.7631 113.6182 2.2661 1.317 15.2979-8.8323-2.2661-1.3169z" fill="#5b5e71"/></g></g></g></g><g><g><g><path d="m76.2595 106.0688 2.266 1.3168 2.2711-1.3112-2.266-1.3169z" fill="#5b5e71"/></g></g></g><g><g><g><path d="m79.5236 104.1842 2.266 1.3169 2.2711-1.3112-2.266-1.3169z" fill="#5b5e71"/></g></g></g><g><g><g><path d="m99.0687 92.8999 2.266 1.3169 2.2711-1.3113-2.266-1.3168z" fill="#5b5e71"/></g></g></g><g><g><g><path d="m95.8046 94.7844 2.266 1.3169 2.2711-1.3113-2.266-1.3168z" fill="#5b5e71"/></g></g></g><g><g><g><path d="m69.7396 113.6012 2.266 1.3168 2.2711-1.3112-2.266-1.3168z" fill="#5b5e71"/></g></g></g></g><g><g><g><path d="m92.1635 114.3081c-.3336.1926-.3355.5199-.0041.7124l6.0803 3.5335c.3313.1926.8965.1926 1.23 0l8.8215-5.0931c.3335-.1926.3354-.5199.004-.7125l-6.0803-3.5335c-.3313-.1926-.8964-.1925-1.2299.0001z" fill="#cad0dd"/></g></g></g></g><g><g><g><path d="m97.8697 80.79c.0158 1.9758-1.3909 4.3941-3.1139 5.3899l-9.6417 5.5638c-1.3435.7745-2.4341.158-2.4499-1.3909 0-1.1223.5848-2.4341 1.4067-3.3509-.0315-.2213-.0474-.4426-.0632-.6955 0-1.96 1.391-4.3625 3.098-5.3425.4267-.2529.8377-.3793 1.2013-.411.5057-1.8335 1.7861-3.6512 3.2876-4.5205 1.9442-1.1223 3.5406-.2213 3.5406 2.0232 0 .2529-.0157.5057-.0474.7745 1.5489-.7113 2.7819.1106 2.7819 1.9599z" fill="#fed57a"/></g></g><g><g><path d="m74.6189 94.3653.1414.0806.009 3.1509-.1405.2433-2.755 1.5906-.1414-.0806-.009-3.1509.1405-.2433z" fill="#75ca75"/></g></g><g><g><path d="m79.3472 91.6354.1543.0732.0089 3.1509-.1533.2507-2.7421 1.5832-.1415-.0806-.0089-3.1509.1405-.2433z" fill="#576cfb"/></g></g><g><g><path d="m81.1484 86.9991.0024.8321-14.176 8.1845-.0024-.8321z" fill="#bac1ce"/></g></g><g><g><path d="m75.6105 86.8857.0024.8321-8.6475 4.9927-.0023-.8322z" fill="#bac1ce"/></g></g><g><g><path d="m83.1567 79.2182.0023.8321-16.203 9.3548-.0023-.8321z" fill="#bac1ce"/></g></g><g><g><path d="m88.5282 72.8062.0023.8321-21.5838 12.4615-.0024-.8321z" fill="#bac1ce"/></g></g><g><g><path d="m69.8778 97.1026.1414.0806.0089 3.1509-.1405.2433-2.755 1.5906-.1414-.0806-.0089-3.1509.1405-.2433z" fill="#fa5168"/></g></g></g><g><g><g><path d="m9.1155 89.0441c1.5297.8831 1.5378 2.3252.0121 3.2118-1.5256.8866-4.0093.8832-5.5389.0001-1.5416-.8901-1.5496-2.3252-.024-3.2118 1.5256-.8867 4.0092-.8901 5.5508-.0001z" fill="#748bfd"/></g></g></g><g><g><g><path d="m69.503 124.073c1.5297.8831 1.5378 2.3252.0121 3.2118s-4.0093.8832-5.539 0c-1.5416-.8901-1.5496-2.3252-.024-3.2118 1.5258-.8866 4.0093-.8901 5.5509 0z" fill="#f9607f"/></g></g></g><g><g><g><g><g><g><path d="m87.3239 9.6679-7.9583 4.5842c1.3738-.7914 3.1986-.7934 5.2192.1378l7.9584-4.5842c-2.0207-.9312-3.8454-.9292-5.2193-.1378z" fill="#cad0dd"/></g></g></g></g><g><g><g><g><path d="m87.3182 5.9606c1.7879-1.0259 4.266-.885 7.0015.7028 4.1407 2.4195 7.6891 7.5219 9.078 12.5973l6.5625-3.8132c-1.3889-5.0753-4.9373-10.159-9.078-12.5785-2.7356-1.5878-5.2137-1.7475-7.0015-.7216z" fill="#d4dae8"/></g></g></g></g><g><g><g><g><path d="m116.9767 50.9126 6.5603-3.8085c1.2172-.7011 1.977-2.1973 1.9911-4.3257.0208-3.1272-1.564-6.7747-3.8766-9.3525l-6.5602 3.8085c2.3125 2.5778 3.8974 6.2253 3.8766 9.3525-.0142 2.1284-.774 3.6246-1.9912 4.3257z" fill="#d4dae8"/></g></g></g></g><g><g><g><g><path d="m115.0913 37.2344 6.5603-3.8085c.1-.5917.1762-1.2112.1808-1.9138.0363-5.4553-3.798-12.1418-8.5351-14.901-1.1843-.6898-2.3226-1.0762-3.3428-1.1588l-6.5603 3.8085c1.0202.0825 2.1585.4689 3.3428 1.1587 4.7371 2.7592 8.5715 9.4457 8.5351 14.901-.0046.7027-.0808 1.3222-.1808 1.9139z" fill="#cad0dd"/></g></g></g></g><g><g><g><g><path d="m94.3154 6.6707c-5.419-3.1564-9.8429-.6577-9.8845 5.5829-.0046.6888.0388 1.3917.1539 2.1364-4.3219-1.9918-7.7477.2861-7.7819 5.4246-.0367 5.5104 3.8213 12.2384 8.5944 15.0186l26.772 15.5938c3.7203 2.167 6.7701.4444 6.7986-3.84.0208-3.1272-1.564-6.7747-3.8766-9.3525.1-.5917.1762-1.2112.1809-1.9138.0363-5.4553-3.798-12.1418-8.5351-14.901-1.1843-.6898-2.3226-1.0762-3.3428-1.1588-1.3832-5.0791-4.9279-10.1724-9.0789-12.5902z" fill="#e4e8f4"/></g></g></g></g></g></g><g><g><g><path d="m97.3241 25.0905 1.9745.8649c.0987-.4014.2415-.7671.4286-1.0768l-1.1987-2.4442 1.6604-.9361 1.4301 2.1397c.3813-.0549.8157-.0282 1.2674.1002l.2183-1.9418 2.3188 1.3388.2066 2.1871c.4421.3877.8752.8618 1.2638 1.3612l1.4464-.479 1.6408 2.8421-1.2086 1.0543c.1935.5294.3339 1.0586.4211 1.5674l1.9818 1.4192-.0076 2.6747-2.1338-.9365c-.1073.3149-.2499.5891-.4367.8276l1.3574 2.7599-1.6516.9412-1.8009-2.6696c-.266-.0007-.5584-.0473-.8418-.1295l-.2819 2.496-2.3188-1.3388-.2668-2.8128c-.2918-.25-.5747-.5355-.8309-.8363l-1.8101.5848-1.6497-2.8472 1.3774-1.1809c-.1849-.4531-.3343-.8959-.4395-1.3335l-2.1233-1.5213zm6.9058 9.3758c1.9383 1.1191 3.5188.2184 3.5251-2.0088s-1.564-4.947-3.5023-6.0661c-1.9382-1.119-3.5188-.2184-3.5251 2.0089-.0062 2.2271 1.5641 4.9469 3.5023 6.066" fill="#4c7891"/></g></g><g><g><path d="m88.3857 13.4308 1.5144.5483c.0541-.3253.1436-.62.2685-.884l-.9965-1.8588 1.1992-.856 1.1568 1.5949c.2839-.0704.6119-.0746.9486-.0126l.0753-1.5558 1.7882.9.2522 1.7245c.3449.2806.6897.6223.9901.9893l1.0651-.475 1.3415 2.1293-.8537.9231c.1673.4124.2903.8093.3778 1.2164l1.5397.9806.1092 2.1309-1.6295-.5945c-.0716.2541-.1609.4877-.2856.6908l1.1199 2.0931-1.1815.8662-1.466-1.9975c-.1951.0198-.4078.0091-.6293-.0373l-.1032 1.9982-1.7793-.8949-.3218-2.2129c-.2211-.1684-.451-.3826-.6543-.612l-1.3226.5912-1.3503-2.1344.9692-1.0397c-.1586-.3462-.2817-.6924-.3783-1.0232l-1.6459-1.0521zm2.6882 2.3976c.0888 1.6939 1.2713 3.6439 2.6891 4.4625.0593.0343.119.0665.1791.0967 1.4872.7466 2.6243-.074 2.5318-1.849-.0888-1.6939-1.2714-3.6438-2.6891-4.4624-.0593-.0343-.119-.0665-.1791-.0967-1.4873-.7467-2.6243.074-2.5318 1.8489" fill="#f9607f"/></g></g><g><g><path d="m87.8503 27.1589 1.5055.5432c.063-.3303.1437-.6301.2773-.8789l-.9965-1.8588 1.1904-.8611 1.1568 1.5949c.2839-.0805.6119-.0746.9575-.0075l.0665-1.5711 1.7882.9.2522 1.7347c.3449.2704.6897.6121.9989.9944l1.0563-.4903 1.3414 2.1395-.8537.9231c.1673.4124.2903.8093.3778 1.2164l1.5397.9807.1092 2.1309-1.6295-.5945c-.0628.2592-.1609.4877-.2856.6908l1.1199 2.0931-1.1815.8662-1.4571-1.9923c-.2039.0147-.4167.0039-.6293-.0373l-.1032 1.9981-1.7882-.9-.3217-2.2129c-.2211-.1786-.451-.3928-.6454-.6069l-1.3314.5861-1.3503-2.1344.9693-1.0498c-.1498-.331-.2817-.6822-.3783-1.013l-1.6459-1.0623zm2.6794 2.3822c.0887 1.7036 1.2713 3.6541 2.6891 4.4726.0593.0343.1189.0665.179.0967 1.4872.7466 2.6243-.0841 2.5318-1.8489-.0891-1.6999-1.2798-3.6578-2.7043-4.4803-.0543-.0314-.1089-.061-.1638-.089-1.4872-.7466-2.6243.0842-2.5318 1.8489" fill="#bac1ce"/></g></g></g></g></g></g></svg>