<svg width="15" height="16" viewBox="0 0 15 16" fill="none" xmlns="http://www.w3.org/2000/svg">
<g id="icon / bootstrap / outline &#38; logos / cloud-check">
<path id="Vector" fill-rule="evenodd" clip-rule="evenodd" d="M9.70686 6.26198C9.75051 6.30552 9.78514 6.35725 9.80877 6.4142C9.83241 6.47115 9.84457 6.5322 9.84457 6.59386C9.84457 6.65551 9.83241 6.71656 9.80877 6.77351C9.78514 6.83046 9.75051 6.88219 9.70686 6.92573L6.89436 9.73823C6.85081 9.78188 6.79909 9.81652 6.74214 9.84015C6.68519 9.86378 6.62414 9.87594 6.56248 9.87594C6.50082 9.87594 6.43977 9.86378 6.38283 9.84015C6.32588 9.81652 6.27415 9.78188 6.23061 9.73823L4.82436 8.33198C4.78077 8.2884 4.7462 8.23666 4.72262 8.17971C4.69903 8.12277 4.68689 8.06174 4.68689 8.00011C4.68689 7.93847 4.69903 7.87744 4.72262 7.8205C4.7462 7.76355 4.78077 7.71181 4.82436 7.66823C4.86794 7.62465 4.91968 7.59008 4.97662 7.56649C5.03357 7.5429 5.0946 7.53076 5.15623 7.53076C5.21787 7.53076 5.2789 7.5429 5.33584 7.56649C5.39278 7.59008 5.44452 7.62465 5.48811 7.66823L6.56248 8.74354L9.04311 6.26198C9.08665 6.21833 9.13838 6.18369 9.19533 6.16006C9.25227 6.13643 9.31332 6.12427 9.37498 6.12427C9.43664 6.12427 9.49769 6.13643 9.55464 6.16006C9.61159 6.18369 9.66331 6.21833 9.70686 6.26198Z" fill="#21272A"/>
<path id="Vector_2" d="M4.13063 3.63313C5.06764 2.82513 6.26273 2.37888 7.5 2.375C10.0219 2.375 12.1153 4.25 12.3431 6.66781C13.8356 6.87875 15 8.12844 15 9.66219C15 11.3459 13.5956 12.6875 11.8941 12.6875H3.54469C1.60125 12.6875 0 11.1556 0 9.23562C0 7.58281 1.18687 6.21406 2.75812 5.86719C2.89219 5.05813 3.4125 4.25188 4.13063 3.63313ZM4.74281 4.34281C4.03312 4.955 3.66188 5.69281 3.66188 6.27031V6.69031L3.24469 6.73625C1.935 6.87969 0.9375 7.955 0.9375 9.23562C0.9375 10.6109 2.09062 11.75 3.54469 11.75H11.8941C13.1062 11.75 14.0625 10.8012 14.0625 9.66219C14.0625 8.52219 13.1062 7.57344 11.8941 7.57344H11.4253V7.10469C11.4263 5.02344 9.6825 3.3125 7.5 3.3125C6.48738 3.31655 5.50954 3.68228 4.74281 4.34375V4.34281Z" fill="#21272A"/>
</g>
</svg>
