<svg width="15" height="16" viewBox="0 0 15 16" fill="none" xmlns="http://www.w3.org/2000/svg">
<g id="icon / bootstrap / outline &#38; logos / inbox">
<path id="Vector" d="M4.66876 4.25C4.5985 4.2501 4.52917 4.26599 4.46588 4.2965C4.40259 4.32701 4.34697 4.37135 4.30313 4.42625L1.44376 8H5.62501C5.74933 8 5.86856 8.04939 5.95647 8.13729C6.04437 8.2252 6.09376 8.34443 6.09376 8.46875C6.09376 8.84171 6.24192 9.1994 6.50564 9.46312C6.76936 9.72684 7.12705 9.875 7.50001 9.875C7.87297 9.875 8.23066 9.72684 8.49438 9.46312C8.7581 9.1994 8.90626 8.84171 8.90626 8.46875C8.90626 8.34443 8.95565 8.2252 9.04355 8.13729C9.13146 8.04939 9.25069 8 9.37501 8H13.5563L10.6969 4.42625C10.653 4.37135 10.5974 4.32701 10.5341 4.2965C10.4709 4.26599 10.4015 4.2501 10.3313 4.25H4.66876ZM14.0006 8.9375H9.79688C9.6893 9.46732 9.40186 9.94366 8.98326 10.2858C8.56466 10.6279 8.04064 10.8148 7.50001 10.8148C6.95937 10.8148 6.43536 10.6279 6.01676 10.2858C5.59816 9.94366 5.31072 9.46732 5.20313 8.9375H0.999384L1.29938 11.3394C1.31357 11.4529 1.36877 11.5573 1.45459 11.6329C1.54041 11.7086 1.65093 11.7502 1.76532 11.75H13.2347C13.3489 11.75 13.4592 11.7082 13.5448 11.6326C13.6305 11.557 13.6855 11.4527 13.6997 11.3394L13.9997 8.9375H14.0006ZM3.57095 3.84031C3.70276 3.67554 3.86996 3.54254 4.06016 3.45117C4.25036 3.3598 4.45869 3.31241 4.6697 3.3125H10.3303C10.5413 3.31241 10.7497 3.3598 10.9399 3.45117C11.1301 3.54254 11.2973 3.67554 11.4291 3.84031L14.8978 8.17625C14.9368 8.22517 14.9656 8.2814 14.9825 8.34161C14.9994 8.40183 15.0041 8.46482 14.9963 8.52688L14.6306 11.4556C14.5881 11.7958 14.4228 12.1088 14.1657 12.3356C13.9086 12.5625 13.5776 12.6876 13.2347 12.6875H1.76532C1.42247 12.6876 1.09138 12.5625 0.834306 12.3356C0.577235 12.1088 0.411898 11.7958 0.369384 11.4556L0.00375933 8.52688C-0.00392466 8.46476 0.000909728 8.40173 0.0179773 8.34151C0.0350448 8.28129 0.0639999 8.2251 0.103134 8.17625L3.57188 3.84031H3.57095Z" fill="#21272A"/>
</g>
</svg>
