<svg width="27" height="27" viewBox="0 0 27 27" fill="none" xmlns="http://www.w3.org/2000/svg">
<g id="icon / tabler-icons / history" clip-path="url(#clip0_3480_62814)">
<path id="Vector" d="M13.5 9V13.5L15.75 15.75" stroke="#21272A" stroke-width="1.7" stroke-linecap="round" stroke-linejoin="round"/>
<path id="Vector_2" d="M3.43127 22.5001V16.8751H9.05627M3.43127 12.3751C3.68338 9.90014 4.83782 7.60464 6.67435 5.92654C8.51088 4.24844 10.9009 3.3052 13.3885 3.27678C15.8761 3.24837 18.2871 4.13677 20.1614 5.77249C22.0358 7.40821 23.2424 9.67674 23.551 12.1453C23.8595 14.6138 23.2485 17.1095 21.8344 19.1563C20.4204 21.2031 18.3022 22.6576 15.8842 23.2424C13.4662 23.8272 10.9175 23.5013 8.7244 22.3269C6.5313 21.1525 4.84734 19.2118 3.99377 16.8751L3.43127 12.3751Z" stroke="#21272A" stroke-width="1.7" stroke-linecap="round" stroke-linejoin="round"/>
</g>
<defs>
<clipPath id="clip0_3480_62814">
<rect width="27" height="27" fill="white"/>
</clipPath>
</defs>
</svg>
